# MagicaVoxel @ ephtracy

# material
mtllib dj_table.mtl
usemtl palette

# normals
vn -1 0 0
vn 1 0 0
vn 0 0 1
vn 0 0 -1
vn 0 -1 0
vn 0 1 0

# texcoords
vt 0.962891 0.5
vt 0.970703 0.5
vt 0.994141 0.5

# verts and faces
v -60 0 20
v -60 0 -20
v -60 18 20
v -60 18 -20
v -60 20 20
v -60 20 -20
f -4/2/1 -5/2/1 -6/2/1
f -3/2/1 -5/2/1 -4/2/1
f -2/3/1 -3/3/1 -4/3/1
f -1/3/1 -3/3/1 -2/3/1
v -20 0 -0
v -20 0 -17
v -20 18 -0
v -20 18 -17
f -2/2/1 -3/2/1 -4/2/1
f -1/2/1 -3/2/1 -2/2/1
v 18 0 -0
v 18 0 -8
v 18 0 -10
v 18 0 -17
v 18 18 -0
v 18 18 -8
v 18 18 -10
v 18 18 -17
f -4/2/1 -7/2/1 -8/2/1
f -3/2/1 -7/2/1 -4/2/1
f -2/2/1 -5/2/1 -6/2/1
f -1/2/1 -5/2/1 -2/2/1
v 57 0 20
v 57 0 -17
v 57 18 20
v 57 18 -17
f -2/2/1 -3/2/1 -4/2/1
f -1/2/1 -3/2/1 -2/2/1
v 58 19 20
v 58 19 -18
v 58 20 20
v 58 20 -18
f -2/3/1 -3/3/1 -4/3/1
f -1/3/1 -3/3/1 -2/3/1
v -58 19 20
v -58 19 -18
v -58 20 20
v -58 20 -18
f -4/3/2 -3/3/2 -2/3/2
f -2/3/2 -3/3/2 -1/3/2
v -57 0 20
v -57 0 -17
v -57 18 20
v -57 18 -17
f -4/2/2 -3/2/2 -2/2/2
f -2/2/2 -3/2/2 -1/2/2
v -18 0 -0
v -18 0 -8
v -18 0 -10
v -18 0 -17
v -18 18 -0
v -18 18 -8
v -18 18 -10
v -18 18 -17
f -8/2/2 -7/2/2 -4/2/2
f -4/2/2 -7/2/2 -3/2/2
f -6/2/2 -5/2/2 -2/2/2
f -2/2/2 -5/2/2 -1/2/2
v 20 0 -0
v 20 0 -17
v 20 18 -0
v 20 18 -17
f -4/2/2 -3/2/2 -2/2/2
f -2/2/2 -3/2/2 -1/2/2
v 60 0 20
v 60 0 -20
v 60 18 20
v 60 18 -20
v 60 20 20
v 60 20 -20
f -6/2/2 -5/2/2 -4/2/2
f -4/2/2 -5/2/2 -3/2/2
f -4/3/2 -3/3/2 -2/3/2
f -2/3/2 -3/3/2 -1/3/2
v -60 0 20
v -60 18 20
v -60 20 20
v -58 18 20
v -58 19 20
v -58 20 20
v -57 0 20
v -57 18 20
v 57 0 20
v 57 18 20
v 58 18 20
v 58 19 20
v 58 20 20
v 60 0 20
v 60 18 20
v 60 20 20
f -13/2/3 -15/2/3 -16/2/3
f -13/3/3 -14/3/3 -15/3/3
f -12/3/3 -14/3/3 -13/3/3
f -11/3/3 -14/3/3 -12/3/3
f -10/2/3 -13/2/3 -16/2/3
f -9/1/3 -12/1/3 -13/1/3
f -9/2/3 -13/2/3 -10/2/3
f -7/1/3 -12/1/3 -9/1/3
f -6/1/3 -12/1/3 -7/1/3
f -6/2/3 -7/2/3 -8/2/3
f -5/1/3 -12/1/3 -6/1/3
f -3/2/3 -6/2/3 -8/2/3
f -2/3/3 -4/3/3 -5/3/3
f -2/2/3 -6/2/3 -3/2/3
f -2/3/3 -5/3/3 -6/3/3
f -1/3/3 -4/3/3 -2/3/3
v -20 0 -0
v -20 18 -0
v -18 0 -0
v -18 18 -0
v 18 0 -0
v 18 18 -0
v 20 0 -0
v 20 18 -0
f -6/2/3 -7/2/3 -8/2/3
f -5/2/3 -7/2/3 -6/2/3
f -2/2/3 -3/2/3 -4/2/3
f -1/2/3 -3/2/3 -2/2/3
v -18 0 -8
v -18 18 -8
v 18 0 -8
v 18 18 -8
f -2/2/3 -3/2/3 -4/2/3
f -1/2/3 -3/2/3 -2/2/3
v -57 0 -17
v -57 18 -17
v -20 0 -17
v -20 18 -17
v -18 0 -17
v -18 18 -17
v 18 0 -17
v 18 18 -17
v 20 0 -17
v 20 18 -17
v 57 0 -17
v 57 18 -17
f -10/2/3 -11/2/3 -12/2/3
f -9/2/3 -11/2/3 -10/2/3
f -6/2/3 -7/2/3 -8/2/3
f -5/2/3 -7/2/3 -6/2/3
f -2/2/3 -3/2/3 -4/2/3
f -1/2/3 -3/2/3 -2/2/3
v -58 19 -18
v -58 20 -18
v 58 19 -18
v 58 20 -18
f -2/3/3 -3/3/3 -4/3/3
f -1/3/3 -3/3/3 -2/3/3
v -18 0 -10
v -18 18 -10
v 18 0 -10
v 18 18 -10
f -4/2/4 -3/2/4 -2/2/4
f -2/2/4 -3/2/4 -1/2/4
v -60 0 -20
v -60 18 -20
v -60 20 -20
v 60 0 -20
v 60 18 -20
v 60 20 -20
f -6/2/4 -5/2/4 -3/2/4
f -5/3/4 -4/3/4 -2/3/4
f -3/2/4 -5/2/4 -2/2/4
f -2/3/4 -4/3/4 -1/3/4
v -60 0 20
v -57 0 20
v 57 0 20
v 60 0 20
v -20 0 -0
v -18 0 -0
v 18 0 -0
v 20 0 -0
v -18 0 -8
v 18 0 -8
v -18 0 -10
v 18 0 -10
v -57 0 -17
v -20 0 -17
v -18 0 -17
v 18 0 -17
v 20 0 -17
v 57 0 -17
v -60 0 -20
v 60 0 -20
f -12/2/5 -15/2/5 -16/2/5
f -11/2/5 -13/2/5 -14/2/5
f -10/2/5 -12/2/5 -16/2/5
f -10/2/5 -11/2/5 -12/2/5
f -9/2/5 -13/2/5 -11/2/5
f -9/2/5 -11/2/5 -10/2/5
f -8/2/5 -19/2/5 -20/2/5
f -7/2/5 -10/2/5 -16/2/5
f -6/2/5 -10/2/5 -7/2/5
f -5/2/5 -13/2/5 -9/2/5
f -4/2/5 -13/2/5 -5/2/5
f -3/2/5 -17/2/5 -18/2/5
f -2/2/5 -6/2/5 -7/2/5
f -2/2/5 -3/2/5 -4/2/5
f -2/2/5 -4/2/5 -5/2/5
f -2/2/5 -8/2/5 -20/2/5
f -2/2/5 -5/2/5 -6/2/5
f -2/2/5 -7/2/5 -8/2/5
f -1/2/5 -17/2/5 -3/2/5
f -1/2/5 -3/2/5 -2/2/5
v -57 18 20
v 57 18 20
v -20 18 -0
v -18 18 -0
v 18 18 -0
v 20 18 -0
v -18 18 -8
v 18 18 -8
v -18 18 -10
v 18 18 -10
v -57 18 -17
v -20 18 -17
v -18 18 -17
v 18 18 -17
v 20 18 -17
v 57 18 -17
f -14/1/5 -15/1/5 -16/1/5
f -13/1/5 -15/1/5 -14/1/5
f -12/1/5 -15/1/5 -13/1/5
f -11/1/5 -15/1/5 -12/1/5
f -10/1/5 -12/1/5 -13/1/5
f -9/1/5 -12/1/5 -10/1/5
f -6/1/5 -14/1/5 -16/1/5
f -5/1/5 -14/1/5 -6/1/5
f -4/1/5 -7/1/5 -8/1/5
f -3/1/5 -7/1/5 -4/1/5
f -2/1/5 -15/1/5 -11/1/5
f -1/1/5 -15/1/5 -2/1/5
v -58 19 20
v 58 19 20
v -58 19 -18
v 58 19 -18
f -4/1/6 -3/1/6 -2/1/6
f -2/1/6 -3/1/6 -1/1/6
v -60 20 20
v -58 20 20
v 58 20 20
v 60 20 20
v -58 20 -18
v 58 20 -18
v -60 20 -20
v 60 20 -20
f -8/3/6 -7/3/6 -4/3/6
f -6/3/6 -5/3/6 -3/3/6
f -8/3/6 -4/3/6 -2/3/6
f -4/3/6 -3/3/6 -2/3/6
f -3/3/6 -5/3/6 -1/3/6
f -2/3/6 -3/3/6 -1/3/6
