# MagicaVoxel @ ephtracy

# material
mtllib lounge_sofa.mtl
usemtl palette

# normals
vn -1 0 0
vn 1 0 0
vn 0 0 1
vn 0 0 -1
vn 0 -1 0
vn 0 1 0

# texcoords
vt 0.955078 0.5
vt 0.986328 0.5
vt 0.994141 0.5

# verts and faces
v -27.5 0 16
v -27.5 0 -9
v -27.5 2 17
v -27.5 2 16
v -27.5 2 -9
v -27.5 16 17
v -27.5 16 -9
f -4/2/1 -6/2/1 -7/2/1
f -3/2/1 -6/2/1 -4/2/1
f -2/3/1 -4/3/1 -5/3/1
f -2/3/1 -3/3/1 -4/3/1
f -1/3/1 -3/3/1 -2/3/1
v -26.5 0 -9
v -26.5 0 -11
v -26.5 2 -9
v -26.5 2 -11
v -26.5 16 -9
v -26.5 16 -11
f -4/2/1 -5/2/1 -6/2/1
f -3/2/1 -5/2/1 -4/2/1
f -2/3/1 -3/3/1 -4/3/1
f -1/3/1 -3/3/1 -2/3/1
v -25.5 0 -11
v -25.5 0 -13
v -25.5 2 -11
v -25.5 2 -13
v -25.5 16 -11
v -25.5 16 -13
f -4/2/1 -5/2/1 -6/2/1
f -3/2/1 -5/2/1 -4/2/1
f -2/3/1 -3/3/1 -4/3/1
f -1/3/1 -3/3/1 -2/3/1
v -24.5 0 -13
v -24.5 0 -14
v -24.5 2 -13
v -24.5 2 -14
v -24.5 16 -13
v -24.5 16 -14
f -4/2/1 -5/2/1 -6/2/1
f -3/2/1 -5/2/1 -4/2/1
f -2/3/1 -3/3/1 -4/3/1
f -1/3/1 -3/3/1 -2/3/1
v -23.5 0 -14
v -23.5 0 -15
v -23.5 2 -14
v -23.5 2 -15
v -23.5 16 -14
v -23.5 16 -15
f -4/2/1 -5/2/1 -6/2/1
f -3/2/1 -5/2/1 -4/2/1
f -2/3/1 -3/3/1 -4/3/1
f -1/3/1 -3/3/1 -2/3/1
v -21.5 0 -15
v -21.5 0 -16
v -21.5 2 -15
v -21.5 2 -16
v -21.5 16 -15
v -21.5 16 -16
f -4/2/1 -5/2/1 -6/2/1
f -3/2/1 -5/2/1 -4/2/1
f -2/3/1 -3/3/1 -4/3/1
f -1/3/1 -3/3/1 -2/3/1
v -19.5 0 -16
v -19.5 0 -17
v -19.5 2 -16
v -19.5 2 -17
v -19.5 16 -16
v -19.5 16 -17
f -4/2/1 -5/2/1 -6/2/1
f -3/2/1 -5/2/1 -4/2/1
f -2/3/1 -3/3/1 -4/3/1
f -1/3/1 -3/3/1 -2/3/1
v -24.5 6 17
v -24.5 6 -10
v -24.5 16 17
v -24.5 16 -10
f -4/3/2 -3/3/2 -2/3/2
f -2/3/2 -3/3/2 -1/3/2
v -23.5 6 -10
v -23.5 6 -11
v -23.5 16 -10
v -23.5 16 -11
f -4/3/2 -3/3/2 -2/3/2
f -2/3/2 -3/3/2 -1/3/2
v -22.5 6 -11
v -22.5 6 -12
v -22.5 16 -11
v -22.5 16 -12
f -4/3/2 -3/3/2 -2/3/2
f -2/3/2 -3/3/2 -1/3/2
v -21.5 6 -12
v -21.5 6 -13
v -21.5 16 -12
v -21.5 16 -13
f -4/3/2 -3/3/2 -2/3/2
f -2/3/2 -3/3/2 -1/3/2
v -20.5 6 -13
v -20.5 6 -14
v -20.5 16 -13
v -20.5 16 -14
f -4/3/2 -3/3/2 -2/3/2
f -2/3/2 -3/3/2 -1/3/2
v -17.5 0 16
v -17.5 0 -7
v -17.5 2 16
v -17.5 2 -7
f -4/2/2 -3/2/2 -2/2/2
f -2/2/2 -3/2/2 -1/2/2
v -16.5 2 17
v -16.5 2 -6
v -16.5 6 17
v -16.5 6 -6
f -4/3/2 -3/3/2 -2/3/2
f -2/3/2 -3/3/2 -1/3/2
v 26.5 0 -7
v 26.5 0 -17
v 26.5 2 -7
v 26.5 2 -17
f -4/2/2 -3/2/2 -2/2/2
f -2/2/2 -3/2/2 -1/2/2
v 27.5 2 -6
v 27.5 2 -17
v 27.5 6 -6
v 27.5 6 -14
v 27.5 16 -14
v 27.5 16 -17
f -6/3/2 -5/3/2 -4/3/2
f -4/3/2 -5/3/2 -3/3/2
f -3/3/2 -5/3/2 -2/3/2
f -2/3/2 -5/3/2 -1/3/2
v -27.5 2 17
v -27.5 16 17
v -24.5 6 17
v -24.5 16 17
v -16.5 2 17
v -16.5 6 17
f -4/3/3 -5/3/3 -6/3/3
f -3/3/3 -5/3/3 -4/3/3
f -2/3/3 -4/3/3 -6/3/3
f -1/3/3 -4/3/3 -2/3/3
v -27.5 0 16
v -27.5 2 16
v -17.5 0 16
v -17.5 2 16
f -2/2/3 -3/2/3 -4/2/3
f -1/2/3 -3/2/3 -2/2/3
v -16.5 2 -6
v -16.5 6 -6
v 27.5 2 -6
v 27.5 6 -6
f -2/3/3 -3/3/3 -4/3/3
f -1/3/3 -3/3/3 -2/3/3
v -17.5 0 -7
v -17.5 2 -7
v 26.5 0 -7
v 26.5 2 -7
f -2/2/3 -3/2/3 -4/2/3
f -1/2/3 -3/2/3 -2/2/3
v -24.5 6 -10
v -24.5 16 -10
v -23.5 6 -10
v -23.5 16 -10
f -2/3/3 -3/3/3 -4/3/3
f -1/3/3 -3/3/3 -2/3/3
v -23.5 6 -11
v -23.5 16 -11
v -22.5 6 -11
v -22.5 16 -11
f -2/3/3 -3/3/3 -4/3/3
f -1/3/3 -3/3/3 -2/3/3
v -22.5 6 -12
v -22.5 16 -12
v -21.5 6 -12
v -21.5 16 -12
f -2/3/3 -3/3/3 -4/3/3
f -1/3/3 -3/3/3 -2/3/3
v -21.5 6 -13
v -21.5 16 -13
v -20.5 6 -13
v -20.5 16 -13
f -2/3/3 -3/3/3 -4/3/3
f -1/3/3 -3/3/3 -2/3/3
v -20.5 6 -14
v -20.5 16 -14
v 27.5 6 -14
v 27.5 16 -14
f -2/3/3 -3/3/3 -4/3/3
f -1/3/3 -3/3/3 -2/3/3
v -27.5 0 -9
v -27.5 2 -9
v -27.5 16 -9
v -26.5 0 -9
v -26.5 2 -9
v -26.5 16 -9
f -6/2/4 -5/2/4 -3/2/4
f -5/3/4 -4/3/4 -2/3/4
f -3/2/4 -5/2/4 -2/2/4
f -2/3/4 -4/3/4 -1/3/4
v -26.5 0 -11
v -26.5 2 -11
v -26.5 16 -11
v -25.5 0 -11
v -25.5 2 -11
v -25.5 16 -11
f -6/2/4 -5/2/4 -3/2/4
f -5/3/4 -4/3/4 -2/3/4
f -3/2/4 -5/2/4 -2/2/4
f -2/3/4 -4/3/4 -1/3/4
v -25.5 0 -13
v -25.5 2 -13
v -25.5 16 -13
v -24.5 0 -13
v -24.5 2 -13
v -24.5 16 -13
f -6/2/4 -5/2/4 -3/2/4
f -5/3/4 -4/3/4 -2/3/4
f -3/2/4 -5/2/4 -2/2/4
f -2/3/4 -4/3/4 -1/3/4
v -24.5 0 -14
v -24.5 2 -14
v -24.5 16 -14
v -23.5 0 -14
v -23.5 2 -14
v -23.5 16 -14
f -6/2/4 -5/2/4 -3/2/4
f -5/3/4 -4/3/4 -2/3/4
f -3/2/4 -5/2/4 -2/2/4
f -2/3/4 -4/3/4 -1/3/4
v -23.5 0 -15
v -23.5 2 -15
v -23.5 16 -15
v -21.5 0 -15
v -21.5 2 -15
v -21.5 16 -15
f -6/2/4 -5/2/4 -3/2/4
f -5/3/4 -4/3/4 -2/3/4
f -3/2/4 -5/2/4 -2/2/4
f -2/3/4 -4/3/4 -1/3/4
v -21.5 0 -16
v -21.5 2 -16
v -21.5 16 -16
v -19.5 0 -16
v -19.5 2 -16
v -19.5 16 -16
f -6/2/4 -5/2/4 -3/2/4
f -5/3/4 -4/3/4 -2/3/4
f -3/2/4 -5/2/4 -2/2/4
f -2/3/4 -4/3/4 -1/3/4
v -19.5 0 -17
v -19.5 2 -17
v -19.5 16 -17
v 26.5 0 -17
v 26.5 2 -17
v 27.5 2 -17
v 27.5 16 -17
f -7/2/4 -6/2/4 -4/2/4
f -6/3/4 -5/3/4 -3/3/4
f -4/2/4 -6/2/4 -3/2/4
f -3/3/4 -5/3/4 -2/3/4
f -2/3/4 -5/3/4 -1/3/4
v -27.5 0 16
v -17.5 0 16
v -17.5 0 -7
v 26.5 0 -7
v -27.5 0 -9
v -26.5 0 -9
v -26.5 0 -11
v -25.5 0 -11
v -25.5 0 -13
v -24.5 0 -13
v -24.5 0 -14
v -23.5 0 -14
v -23.5 0 -15
v -21.5 0 -15
v -21.5 0 -16
v -19.5 0 -16
v -19.5 0 -17
v 26.5 0 -17
f -16/2/5 -17/2/5 -18/2/5
f -14/2/5 -16/2/5 -18/2/5
f -14/2/5 -15/2/5 -16/2/5
f -13/2/5 -15/2/5 -14/2/5
f -12/2/5 -15/2/5 -13/2/5
f -11/2/5 -15/2/5 -12/2/5
f -10/2/5 -15/2/5 -11/2/5
f -9/2/5 -15/2/5 -10/2/5
f -8/2/5 -15/2/5 -9/2/5
f -7/2/5 -15/2/5 -8/2/5
f -6/2/5 -15/2/5 -7/2/5
f -5/2/5 -15/2/5 -6/2/5
f -4/2/5 -15/2/5 -5/2/5
f -3/2/5 -15/2/5 -4/2/5
f -2/2/5 -15/2/5 -3/2/5
f -1/2/5 -15/2/5 -2/2/5
v -27.5 2 17
v -16.5 2 17
v -27.5 2 16
v -17.5 2 16
v -16.5 2 -6
v 27.5 2 -6
v -17.5 2 -7
v 26.5 2 -7
v 26.5 2 -17
v 27.5 2 -17
f -8/3/5 -9/3/5 -10/3/5
f -7/3/5 -9/3/5 -8/3/5
f -6/3/5 -9/3/5 -7/3/5
f -4/3/5 -6/3/5 -7/3/5
f -4/3/5 -5/3/5 -6/3/5
f -3/3/5 -5/3/5 -4/3/5
f -2/3/5 -5/3/5 -3/3/5
f -1/3/5 -5/3/5 -2/3/5
v -24.5 6 17
v -16.5 6 17
v -16.5 6 -6
v 27.5 6 -6
v -24.5 6 -10
v -23.5 6 -10
v -23.5 6 -11
v -22.5 6 -11
v -22.5 6 -12
v -21.5 6 -12
v -21.5 6 -13
v -20.5 6 -13
v -20.5 6 -14
v 27.5 6 -14
f -14/3/6 -13/3/6 -12/3/6
f -14/3/6 -12/3/6 -10/3/6
f -12/3/6 -11/3/6 -10/3/6
f -10/3/6 -11/3/6 -9/3/6
f -9/3/6 -11/3/6 -8/3/6
f -8/3/6 -11/3/6 -7/3/6
f -7/3/6 -11/3/6 -6/3/6
f -6/3/6 -11/3/6 -5/3/6
f -5/3/6 -11/3/6 -4/3/6
f -4/3/6 -11/3/6 -3/3/6
f -3/3/6 -11/3/6 -2/3/6
f -2/3/6 -11/3/6 -1/3/6
v -27.5 16 17
v -24.5 16 17
v -27.5 16 -9
v -26.5 16 -9
v -24.5 16 -10
v -23.5 16 -10
v -26.5 16 -11
v -25.5 16 -11
v -23.5 16 -11
v -22.5 16 -11
v -22.5 16 -12
v -21.5 16 -12
v -25.5 16 -13
v -24.5 16 -13
v -21.5 16 -13
v -20.5 16 -13
v -24.5 16 -14
v -23.5 16 -14
v -20.5 16 -14
v 27.5 16 -14
v -23.5 16 -15
v -21.5 16 -15
v -21.5 16 -16
v -19.5 16 -16
v -19.5 16 -17
v 27.5 16 -17
f -26/3/6 -25/3/6 -24/3/6
f -24/3/6 -25/3/6 -23/3/6
f -23/3/6 -25/3/6 -22/3/6
f -23/3/6 -22/3/6 -20/3/6
f -22/3/6 -21/3/6 -20/3/6
f -20/3/6 -21/3/6 -19/3/6
f -19/3/6 -21/3/6 -18/3/6
f -18/3/6 -17/3/6 -16/3/6
f -19/3/6 -18/3/6 -16/3/6
f -19/3/6 -16/3/6 -14/3/6
f -16/3/6 -15/3/6 -14/3/6
f -14/3/6 -15/3/6 -13/3/6
f -13/3/6 -15/3/6 -12/3/6
f -12/3/6 -11/3/6 -10/3/6
f -13/3/6 -12/3/6 -10/3/6
f -10/3/6 -11/3/6 -9/3/6
f -9/3/6 -11/3/6 -8/3/6
f -8/3/6 -7/3/6 -6/3/6
f -9/3/6 -8/3/6 -6/3/6
f -6/3/6 -7/3/6 -5/3/6
f -5/3/6 -7/3/6 -4/3/6
f -4/3/6 -7/3/6 -3/3/6
f -3/3/6 -7/3/6 -2/3/6
f -2/3/6 -7/3/6 -1/3/6
