# MagicaVoxel @ ephtracy

# material
mtllib lounge_sofa.mtl
usemtl palette

# normals
vn -1 0 0
vn 1 0 0
vn 0 0 1
vn 0 0 -1
vn 0 -1 0
vn 0 1 0

# texcoords
vt 0.955078 0.5
vt 0.986328 0.5
vt 0.994141 0.5

# verts and faces
v -23.5 2 5.5
v -23.5 2 -5.5
v -23.5 6 5.5
v -23.5 6 -2.5
v -23.5 16 -2.5
v -23.5 16 -5.5
f -4/3/1 -5/3/1 -6/3/1
f -3/3/1 -5/3/1 -4/3/1
f -2/3/1 -5/3/1 -3/3/1
f -1/3/1 -5/3/1 -2/3/1
v -22.5 0 4.5
v -22.5 0 -5.5
v -22.5 2 4.5
v -22.5 2 -5.5
f -2/2/1 -3/2/1 -4/2/1
f -1/2/1 -3/2/1 -2/2/1
v 22.5 0 4.5
v 22.5 0 -5.5
v 22.5 2 4.5
v 22.5 2 -5.5
f -4/2/2 -3/2/2 -2/2/2
f -2/2/2 -3/2/2 -1/2/2
v 23.5 2 5.5
v 23.5 2 -5.5
v 23.5 6 5.5
v 23.5 6 -2.5
v 23.5 16 -2.5
v 23.5 16 -5.5
f -6/3/2 -5/3/2 -4/3/2
f -4/3/2 -5/3/2 -3/3/2
f -3/3/2 -5/3/2 -2/3/2
f -2/3/2 -5/3/2 -1/3/2
v -23.5 2 5.5
v -23.5 6 5.5
v 23.5 2 5.5
v 23.5 6 5.5
f -2/3/3 -3/3/3 -4/3/3
f -1/3/3 -3/3/3 -2/3/3
v -22.5 0 4.5
v -22.5 2 4.5
v 22.5 0 4.5
v 22.5 2 4.5
f -2/2/3 -3/2/3 -4/2/3
f -1/2/3 -3/2/3 -2/2/3
v -23.5 6 -2.5
v -23.5 16 -2.5
v 23.5 6 -2.5
v 23.5 16 -2.5
f -2/3/3 -3/3/3 -4/3/3
f -1/3/3 -3/3/3 -2/3/3
v -23.5 2 -5.5
v -23.5 16 -5.5
v -22.5 0 -5.5
v -22.5 2 -5.5
v 22.5 0 -5.5
v 22.5 2 -5.5
v 23.5 2 -5.5
v 23.5 16 -5.5
f -8/3/4 -7/3/4 -5/3/4
f -6/2/4 -5/2/4 -4/2/4
f -5/3/4 -7/3/4 -3/3/4
f -4/2/4 -5/2/4 -3/2/4
f -3/3/4 -7/3/4 -2/3/4
f -2/3/4 -7/3/4 -1/3/4
v -22.5 0 4.5
v 22.5 0 4.5
v -22.5 0 -5.5
v 22.5 0 -5.5
f -2/2/5 -3/2/5 -4/2/5
f -1/2/5 -3/2/5 -2/2/5
v -23.5 2 5.5
v 23.5 2 5.5
v -22.5 2 4.5
v 22.5 2 4.5
v -23.5 2 -5.5
v -22.5 2 -5.5
v 22.5 2 -5.5
v 23.5 2 -5.5
f -6/3/5 -7/3/5 -8/3/5
f -5/3/5 -7/3/5 -6/3/5
f -4/3/5 -6/3/5 -8/3/5
f -3/3/5 -6/3/5 -4/3/5
f -2/3/5 -7/3/5 -5/3/5
f -1/3/5 -7/3/5 -2/3/5
v -23.5 6 5.5
v 23.5 6 5.5
v -23.5 6 -2.5
v 23.5 6 -2.5
f -4/3/6 -3/3/6 -2/3/6
f -2/3/6 -3/3/6 -1/3/6
v -23.5 16 -2.5
v 23.5 16 -2.5
v -23.5 16 -5.5
v 23.5 16 -5.5
f -4/3/6 -3/3/6 -2/3/6
f -2/3/6 -3/3/6 -1/3/6
