# MagicaVoxel @ ephtracy

# material
mtllib lounge_table.mtl
usemtl palette

# normals
vn -1 0 0
vn 1 0 0
vn 0 0 1
vn 0 0 -1
vn 0 -1 0
vn 0 1 0

# texcoords
vt 0.970703 0.5
vt 0.986328 0.5

# verts and faces
v -9 0 2
v -9 0 -2
v -9 1 2
v -9 1 -2
v -9 18 2
v -9 18 -2
v -9 20 2
v -9 20 -2
f -6/2/1 -7/2/1 -8/2/1
f -5/2/1 -7/2/1 -6/2/1
f -2/1/1 -3/1/1 -4/1/1
f -1/1/1 -3/1/1 -2/1/1
v -8 0 4
v -8 0 2
v -8 0 -2
v -8 0 -4
v -8 1 4
v -8 1 2
v -8 1 -2
v -8 1 -4
v -8 18 4
v -8 18 2
v -8 18 -2
v -8 18 -4
v -8 20 4
v -8 20 2
v -8 20 -2
v -8 20 -4
f -12/2/1 -15/2/1 -16/2/1
f -11/2/1 -15/2/1 -12/2/1
f -10/2/1 -13/2/1 -14/2/1
f -9/2/1 -13/2/1 -10/2/1
f -4/1/1 -7/1/1 -8/1/1
f -3/1/1 -7/1/1 -4/1/1
f -2/1/1 -5/1/1 -6/1/1
f -1/1/1 -5/1/1 -2/1/1
v -7 0 6
v -7 0 4
v -7 0 -4
v -7 0 -6
v -7 1 6
v -7 1 4
v -7 1 -4
v -7 1 -6
v -7 18 6
v -7 18 4
v -7 18 -4
v -7 18 -6
v -7 20 6
v -7 20 4
v -7 20 -4
v -7 20 -6
f -12/2/1 -15/2/1 -16/2/1
f -11/2/1 -15/2/1 -12/2/1
f -10/2/1 -13/2/1 -14/2/1
f -9/2/1 -13/2/1 -10/2/1
f -4/1/1 -7/1/1 -8/1/1
f -3/1/1 -7/1/1 -4/1/1
f -2/1/1 -5/1/1 -6/1/1
f -1/1/1 -5/1/1 -2/1/1
v -6 0 7
v -6 0 6
v -6 0 -6
v -6 0 -7
v -6 1 7
v -6 1 6
v -6 1 -6
v -6 1 -7
v -6 18 7
v -6 18 6
v -6 18 -6
v -6 18 -7
v -6 20 7
v -6 20 6
v -6 20 -6
v -6 20 -7
f -12/2/1 -15/2/1 -16/2/1
f -11/2/1 -15/2/1 -12/2/1
f -10/2/1 -13/2/1 -14/2/1
f -9/2/1 -13/2/1 -10/2/1
f -4/1/1 -7/1/1 -8/1/1
f -3/1/1 -7/1/1 -4/1/1
f -2/1/1 -5/1/1 -6/1/1
f -1/1/1 -5/1/1 -2/1/1
v -4 0 8
v -4 0 7
v -4 0 -7
v -4 0 -8
v -4 1 8
v -4 1 7
v -4 1 -7
v -4 1 -8
v -4 18 8
v -4 18 7
v -4 18 -7
v -4 18 -8
v -4 20 8
v -4 20 7
v -4 20 -7
v -4 20 -8
f -12/2/1 -15/2/1 -16/2/1
f -11/2/1 -15/2/1 -12/2/1
f -10/2/1 -13/2/1 -14/2/1
f -9/2/1 -13/2/1 -10/2/1
f -4/1/1 -7/1/1 -8/1/1
f -3/1/1 -7/1/1 -4/1/1
f -2/1/1 -5/1/1 -6/1/1
f -1/1/1 -5/1/1 -2/1/1
v -2 0 9
v -2 0 8
v -2 0 -8
v -2 0 -9
v -2 1 9
v -2 1 8
v -2 1 2
v -2 1 -2
v -2 1 -8
v -2 1 -9
v -2 2 2
v -2 2 -2
v -2 18 9
v -2 18 8
v -2 18 -8
v -2 18 -9
v -2 20 9
v -2 20 8
v -2 20 -8
v -2 20 -9
f -16/2/1 -19/2/1 -20/2/1
f -15/2/1 -19/2/1 -16/2/1
f -12/2/1 -17/2/1 -18/2/1
f -11/2/1 -17/2/1 -12/2/1
f -10/1/1 -13/1/1 -14/1/1
f -9/1/1 -13/1/1 -10/1/1
f -4/1/1 -7/1/1 -8/1/1
f -3/1/1 -7/1/1 -4/1/1
f -2/1/1 -5/1/1 -6/1/1
f -1/1/1 -5/1/1 -2/1/1
v -1 2 1
v -1 2 -1
v -1 18 1
v -1 18 -1
f -2/2/1 -3/2/1 -4/2/1
f -1/2/1 -3/2/1 -2/2/1
v 1 2 1
v 1 2 -1
v 1 18 1
v 1 18 -1
f -4/2/2 -3/2/2 -2/2/2
f -2/2/2 -3/2/2 -1/2/2
v 2 0 9
v 2 0 8
v 2 0 -8
v 2 0 -9
v 2 1 9
v 2 1 8
v 2 1 2
v 2 1 -2
v 2 1 -8
v 2 1 -9
v 2 2 2
v 2 2 -2
v 2 18 9
v 2 18 8
v 2 18 -8
v 2 18 -9
v 2 20 9
v 2 20 8
v 2 20 -8
v 2 20 -9
f -20/2/2 -19/2/2 -16/2/2
f -16/2/2 -19/2/2 -15/2/2
f -18/2/2 -17/2/2 -12/2/2
f -12/2/2 -17/2/2 -11/2/2
f -14/1/2 -13/1/2 -10/1/2
f -10/1/2 -13/1/2 -9/1/2
f -8/1/2 -7/1/2 -4/1/2
f -4/1/2 -7/1/2 -3/1/2
f -6/1/2 -5/1/2 -2/1/2
f -2/1/2 -5/1/2 -1/1/2
v 4 0 8
v 4 0 7
v 4 0 -7
v 4 0 -8
v 4 1 8
v 4 1 7
v 4 1 -7
v 4 1 -8
v 4 18 8
v 4 18 7
v 4 18 -7
v 4 18 -8
v 4 20 8
v 4 20 7
v 4 20 -7
v 4 20 -8
f -16/2/2 -15/2/2 -12/2/2
f -12/2/2 -15/2/2 -11/2/2
f -14/2/2 -13/2/2 -10/2/2
f -10/2/2 -13/2/2 -9/2/2
f -8/1/2 -7/1/2 -4/1/2
f -4/1/2 -7/1/2 -3/1/2
f -6/1/2 -5/1/2 -2/1/2
f -2/1/2 -5/1/2 -1/1/2
v 6 0 7
v 6 0 6
v 6 0 -6
v 6 0 -7
v 6 1 7
v 6 1 6
v 6 1 -6
v 6 1 -7
v 6 18 7
v 6 18 6
v 6 18 -6
v 6 18 -7
v 6 20 7
v 6 20 6
v 6 20 -6
v 6 20 -7
f -16/2/2 -15/2/2 -12/2/2
f -12/2/2 -15/2/2 -11/2/2
f -14/2/2 -13/2/2 -10/2/2
f -10/2/2 -13/2/2 -9/2/2
f -8/1/2 -7/1/2 -4/1/2
f -4/1/2 -7/1/2 -3/1/2
f -6/1/2 -5/1/2 -2/1/2
f -2/1/2 -5/1/2 -1/1/2
v 7 0 6
v 7 0 4
v 7 0 -4
v 7 0 -6
v 7 1 6
v 7 1 4
v 7 1 -4
v 7 1 -6
v 7 18 6
v 7 18 4
v 7 18 -4
v 7 18 -6
v 7 20 6
v 7 20 4
v 7 20 -4
v 7 20 -6
f -16/2/2 -15/2/2 -12/2/2
f -12/2/2 -15/2/2 -11/2/2
f -14/2/2 -13/2/2 -10/2/2
f -10/2/2 -13/2/2 -9/2/2
f -8/1/2 -7/1/2 -4/1/2
f -4/1/2 -7/1/2 -3/1/2
f -6/1/2 -5/1/2 -2/1/2
f -2/1/2 -5/1/2 -1/1/2
v 8 0 4
v 8 0 2
v 8 0 -2
v 8 0 -4
v 8 1 4
v 8 1 2
v 8 1 -2
v 8 1 -4
v 8 18 4
v 8 18 2
v 8 18 -2
v 8 18 -4
v 8 20 4
v 8 20 2
v 8 20 -2
v 8 20 -4
f -16/2/2 -15/2/2 -12/2/2
f -12/2/2 -15/2/2 -11/2/2
f -14/2/2 -13/2/2 -10/2/2
f -10/2/2 -13/2/2 -9/2/2
f -8/1/2 -7/1/2 -4/1/2
f -4/1/2 -7/1/2 -3/1/2
f -6/1/2 -5/1/2 -2/1/2
f -2/1/2 -5/1/2 -1/1/2
v 9 0 2
v 9 0 -2
v 9 1 2
v 9 1 -2
v 9 18 2
v 9 18 -2
v 9 20 2
v 9 20 -2
f -8/2/2 -7/2/2 -6/2/2
f -6/2/2 -7/2/2 -5/2/2
f -4/1/2 -3/1/2 -2/1/2
f -2/1/2 -3/1/2 -1/1/2
v -2 0 9
v -2 1 9
v -2 18 9
v -2 20 9
v 2 0 9
v 2 1 9
v 2 18 9
v 2 20 9
f -4/2/3 -7/2/3 -8/2/3
f -3/2/3 -7/2/3 -4/2/3
f -2/1/3 -5/1/3 -6/1/3
f -1/1/3 -5/1/3 -2/1/3
v -4 0 8
v -4 1 8
v -4 18 8
v -4 20 8
v -2 0 8
v -2 1 8
v -2 18 8
v -2 20 8
v 2 0 8
v 2 1 8
v 2 18 8
v 2 20 8
v 4 0 8
v 4 1 8
v 4 18 8
v 4 20 8
f -12/2/3 -15/2/3 -16/2/3
f -11/2/3 -15/2/3 -12/2/3
f -10/1/3 -13/1/3 -14/1/3
f -9/1/3 -13/1/3 -10/1/3
f -4/2/3 -7/2/3 -8/2/3
f -3/2/3 -7/2/3 -4/2/3
f -2/1/3 -5/1/3 -6/1/3
f -1/1/3 -5/1/3 -2/1/3
v -6 0 7
v -6 1 7
v -6 18 7
v -6 20 7
v -4 0 7
v -4 1 7
v -4 18 7
v -4 20 7
v 4 0 7
v 4 1 7
v 4 18 7
v 4 20 7
v 6 0 7
v 6 1 7
v 6 18 7
v 6 20 7
f -12/2/3 -15/2/3 -16/2/3
f -11/2/3 -15/2/3 -12/2/3
f -10/1/3 -13/1/3 -14/1/3
f -9/1/3 -13/1/3 -10/1/3
f -4/2/3 -7/2/3 -8/2/3
f -3/2/3 -7/2/3 -4/2/3
f -2/1/3 -5/1/3 -6/1/3
f -1/1/3 -5/1/3 -2/1/3
v -7 0 6
v -7 1 6
v -7 18 6
v -7 20 6
v -6 0 6
v -6 1 6
v -6 18 6
v -6 20 6
v 6 0 6
v 6 1 6
v 6 18 6
v 6 20 6
v 7 0 6
v 7 1 6
v 7 18 6
v 7 20 6
f -12/2/3 -15/2/3 -16/2/3
f -11/2/3 -15/2/3 -12/2/3
f -10/1/3 -13/1/3 -14/1/3
f -9/1/3 -13/1/3 -10/1/3
f -4/2/3 -7/2/3 -8/2/3
f -3/2/3 -7/2/3 -4/2/3
f -2/1/3 -5/1/3 -6/1/3
f -1/1/3 -5/1/3 -2/1/3
v -8 0 4
v -8 1 4
v -8 18 4
v -8 20 4
v -7 0 4
v -7 1 4
v -7 18 4
v -7 20 4
v 7 0 4
v 7 1 4
v 7 18 4
v 7 20 4
v 8 0 4
v 8 1 4
v 8 18 4
v 8 20 4
f -12/2/3 -15/2/3 -16/2/3
f -11/2/3 -15/2/3 -12/2/3
f -10/1/3 -13/1/3 -14/1/3
f -9/1/3 -13/1/3 -10/1/3
f -4/2/3 -7/2/3 -8/2/3
f -3/2/3 -7/2/3 -4/2/3
f -2/1/3 -5/1/3 -6/1/3
f -1/1/3 -5/1/3 -2/1/3
v -9 0 2
v -9 1 2
v -9 18 2
v -9 20 2
v -8 0 2
v -8 1 2
v -8 18 2
v -8 20 2
v -2 1 2
v -2 2 2
v 2 1 2
v 2 2 2
v 8 0 2
v 8 1 2
v 8 18 2
v 8 20 2
v 9 0 2
v 9 1 2
v 9 18 2
v 9 20 2
f -16/2/3 -19/2/3 -20/2/3
f -15/2/3 -19/2/3 -16/2/3
f -14/1/3 -17/1/3 -18/1/3
f -13/1/3 -17/1/3 -14/1/3
f -10/1/3 -11/1/3 -12/1/3
f -9/1/3 -11/1/3 -10/1/3
f -4/2/3 -7/2/3 -8/2/3
f -3/2/3 -7/2/3 -4/2/3
f -2/1/3 -5/1/3 -6/1/3
f -1/1/3 -5/1/3 -2/1/3
v -1 2 1
v -1 18 1
v 1 2 1
v 1 18 1
f -2/2/3 -3/2/3 -4/2/3
f -1/2/3 -3/2/3 -2/2/3
v -1 2 -1
v -1 18 -1
v 1 2 -1
v 1 18 -1
f -4/2/4 -3/2/4 -2/2/4
f -2/2/4 -3/2/4 -1/2/4
v -9 0 -2
v -9 1 -2
v -9 18 -2
v -9 20 -2
v -8 0 -2
v -8 1 -2
v -8 18 -2
v -8 20 -2
v -2 1 -2
v -2 2 -2
v 2 1 -2
v 2 2 -2
v 8 0 -2
v 8 1 -2
v 8 18 -2
v 8 20 -2
v 9 0 -2
v 9 1 -2
v 9 18 -2
v 9 20 -2
f -20/2/4 -19/2/4 -16/2/4
f -16/2/4 -19/2/4 -15/2/4
f -18/1/4 -17/1/4 -14/1/4
f -14/1/4 -17/1/4 -13/1/4
f -12/1/4 -11/1/4 -10/1/4
f -10/1/4 -11/1/4 -9/1/4
f -8/2/4 -7/2/4 -4/2/4
f -4/2/4 -7/2/4 -3/2/4
f -6/1/4 -5/1/4 -2/1/4
f -2/1/4 -5/1/4 -1/1/4
v -8 0 -4
v -8 1 -4
v -8 18 -4
v -8 20 -4
v -7 0 -4
v -7 1 -4
v -7 18 -4
v -7 20 -4
v 7 0 -4
v 7 1 -4
v 7 18 -4
v 7 20 -4
v 8 0 -4
v 8 1 -4
v 8 18 -4
v 8 20 -4
f -16/2/4 -15/2/4 -12/2/4
f -12/2/4 -15/2/4 -11/2/4
f -14/1/4 -13/1/4 -10/1/4
f -10/1/4 -13/1/4 -9/1/4
f -8/2/4 -7/2/4 -4/2/4
f -4/2/4 -7/2/4 -3/2/4
f -6/1/4 -5/1/4 -2/1/4
f -2/1/4 -5/1/4 -1/1/4
v -7 0 -6
v -7 1 -6
v -7 18 -6
v -7 20 -6
v -6 0 -6
v -6 1 -6
v -6 18 -6
v -6 20 -6
v 6 0 -6
v 6 1 -6
v 6 18 -6
v 6 20 -6
v 7 0 -6
v 7 1 -6
v 7 18 -6
v 7 20 -6
f -16/2/4 -15/2/4 -12/2/4
f -12/2/4 -15/2/4 -11/2/4
f -14/1/4 -13/1/4 -10/1/4
f -10/1/4 -13/1/4 -9/1/4
f -8/2/4 -7/2/4 -4/2/4
f -4/2/4 -7/2/4 -3/2/4
f -6/1/4 -5/1/4 -2/1/4
f -2/1/4 -5/1/4 -1/1/4
v -6 0 -7
v -6 1 -7
v -6 18 -7
v -6 20 -7
v -4 0 -7
v -4 1 -7
v -4 18 -7
v -4 20 -7
v 4 0 -7
v 4 1 -7
v 4 18 -7
v 4 20 -7
v 6 0 -7
v 6 1 -7
v 6 18 -7
v 6 20 -7
f -16/2/4 -15/2/4 -12/2/4
f -12/2/4 -15/2/4 -11/2/4
f -14/1/4 -13/1/4 -10/1/4
f -10/1/4 -13/1/4 -9/1/4
f -8/2/4 -7/2/4 -4/2/4
f -4/2/4 -7/2/4 -3/2/4
f -6/1/4 -5/1/4 -2/1/4
f -2/1/4 -5/1/4 -1/1/4
v -4 0 -8
v -4 1 -8
v -4 18 -8
v -4 20 -8
v -2 0 -8
v -2 1 -8
v -2 18 -8
v -2 20 -8
v 2 0 -8
v 2 1 -8
v 2 18 -8
v 2 20 -8
v 4 0 -8
v 4 1 -8
v 4 18 -8
v 4 20 -8
f -16/2/4 -15/2/4 -12/2/4
f -12/2/4 -15/2/4 -11/2/4
f -14/1/4 -13/1/4 -10/1/4
f -10/1/4 -13/1/4 -9/1/4
f -8/2/4 -7/2/4 -4/2/4
f -4/2/4 -7/2/4 -3/2/4
f -6/1/4 -5/1/4 -2/1/4
f -2/1/4 -5/1/4 -1/1/4
v -2 0 -9
v -2 1 -9
v -2 18 -9
v -2 20 -9
v 2 0 -9
v 2 1 -9
v 2 18 -9
v 2 20 -9
f -8/2/4 -7/2/4 -4/2/4
f -4/2/4 -7/2/4 -3/2/4
f -6/1/4 -5/1/4 -2/1/4
f -2/1/4 -5/1/4 -1/1/4
v -2 0 9
v 2 0 9
v -4 0 8
v -2 0 8
v 2 0 8
v 4 0 8
v -6 0 7
v -4 0 7
v 4 0 7
v 6 0 7
v -7 0 6
v -6 0 6
v 6 0 6
v 7 0 6
v -8 0 4
v -7 0 4
v 7 0 4
v 8 0 4
v -9 0 2
v -8 0 2
v 8 0 2
v 9 0 2
v -9 0 -2
v -8 0 -2
v 8 0 -2
v 9 0 -2
v -8 0 -4
v -7 0 -4
v 7 0 -4
v 8 0 -4
v -7 0 -6
v -6 0 -6
v 6 0 -6
v 7 0 -6
v -6 0 -7
v -4 0 -7
v 4 0 -7
v 6 0 -7
v -4 0 -8
v -2 0 -8
v 2 0 -8
v 4 0 -8
v -2 0 -9
v 2 0 -9
f -41/2/5 -43/2/5 -44/2/5
f -40/2/5 -43/2/5 -41/2/5
f -37/2/5 -41/2/5 -42/2/5
f -37/2/5 -39/2/5 -40/2/5
f -37/2/5 -40/2/5 -41/2/5
f -36/2/5 -39/2/5 -37/2/5
f -33/2/5 -37/2/5 -38/2/5
f -33/2/5 -35/2/5 -36/2/5
f -33/2/5 -36/2/5 -37/2/5
f -32/2/5 -35/2/5 -33/2/5
f -29/2/5 -33/2/5 -34/2/5
f -29/2/5 -31/2/5 -32/2/5
f -29/2/5 -32/2/5 -33/2/5
f -28/2/5 -31/2/5 -29/2/5
f -25/2/5 -29/2/5 -30/2/5
f -25/2/5 -27/2/5 -28/2/5
f -25/2/5 -28/2/5 -29/2/5
f -24/2/5 -27/2/5 -25/2/5
f -22/2/5 -25/2/5 -26/2/5
f -22/2/5 -23/2/5 -24/2/5
f -22/2/5 -24/2/5 -25/2/5
f -21/2/5 -23/2/5 -22/2/5
f -20/2/5 -23/2/5 -21/2/5
f -19/2/5 -23/2/5 -20/2/5
f -18/2/5 -20/2/5 -21/2/5
f -17/2/5 -20/2/5 -18/2/5
f -16/2/5 -20/2/5 -17/2/5
f -15/2/5 -20/2/5 -16/2/5
f -14/2/5 -16/2/5 -17/2/5
f -13/2/5 -16/2/5 -14/2/5
f -12/2/5 -16/2/5 -13/2/5
f -11/2/5 -16/2/5 -12/2/5
f -10/2/5 -12/2/5 -13/2/5
f -9/2/5 -12/2/5 -10/2/5
f -8/2/5 -12/2/5 -9/2/5
f -7/2/5 -12/2/5 -8/2/5
f -6/2/5 -8/2/5 -9/2/5
f -5/2/5 -8/2/5 -6/2/5
f -4/2/5 -8/2/5 -5/2/5
f -3/2/5 -8/2/5 -4/2/5
f -2/2/5 -4/2/5 -5/2/5
f -1/2/5 -4/2/5 -2/2/5
v -2 18 9
v 2 18 9
v -4 18 8
v -2 18 8
v 2 18 8
v 4 18 8
v -6 18 7
v -4 18 7
v 4 18 7
v 6 18 7
v -7 18 6
v -6 18 6
v 6 18 6
v 7 18 6
v -8 18 4
v -7 18 4
v 7 18 4
v 8 18 4
v -9 18 2
v -8 18 2
v 8 18 2
v 9 18 2
v -1 18 1
v 1 18 1
v -1 18 -1
v 1 18 -1
v -9 18 -2
v -8 18 -2
v 8 18 -2
v 9 18 -2
v -8 18 -4
v -7 18 -4
v 7 18 -4
v 8 18 -4
v -7 18 -6
v -6 18 -6
v 6 18 -6
v 7 18 -6
v -6 18 -7
v -4 18 -7
v 4 18 -7
v 6 18 -7
v -4 18 -8
v -2 18 -8
v 2 18 -8
v 4 18 -8
v -2 18 -9
v 2 18 -9
f -45/1/5 -47/1/5 -48/1/5
f -44/1/5 -47/1/5 -45/1/5
f -41/1/5 -45/1/5 -46/1/5
f -41/1/5 -43/1/5 -44/1/5
f -41/1/5 -44/1/5 -45/1/5
f -40/1/5 -43/1/5 -41/1/5
f -37/1/5 -41/1/5 -42/1/5
f -37/1/5 -39/1/5 -40/1/5
f -37/1/5 -40/1/5 -41/1/5
f -36/1/5 -39/1/5 -37/1/5
f -33/1/5 -37/1/5 -38/1/5
f -33/1/5 -35/1/5 -36/1/5
f -33/1/5 -36/1/5 -37/1/5
f -32/1/5 -35/1/5 -33/1/5
f -29/1/5 -33/1/5 -34/1/5
f -29/1/5 -31/1/5 -32/1/5
f -29/1/5 -32/1/5 -33/1/5
f -28/1/5 -31/1/5 -29/1/5
f -26/1/5 -29/1/5 -30/1/5
f -26/1/5 -27/1/5 -28/1/5
f -26/1/5 -28/1/5 -29/1/5
f -25/1/5 -27/1/5 -26/1/5
f -24/1/5 -26/1/5 -30/1/5
f -23/1/5 -27/1/5 -25/1/5
f -22/1/5 -24/1/5 -30/1/5
f -22/1/5 -23/1/5 -24/1/5
f -21/1/5 -23/1/5 -22/1/5
f -20/1/5 -27/1/5 -23/1/5
f -20/1/5 -23/1/5 -21/1/5
f -19/1/5 -27/1/5 -20/1/5
f -18/1/5 -20/1/5 -21/1/5
f -17/1/5 -20/1/5 -18/1/5
f -16/1/5 -20/1/5 -17/1/5
f -15/1/5 -20/1/5 -16/1/5
f -14/1/5 -16/1/5 -17/1/5
f -13/1/5 -16/1/5 -14/1/5
f -12/1/5 -16/1/5 -13/1/5
f -11/1/5 -16/1/5 -12/1/5
f -10/1/5 -12/1/5 -13/1/5
f -9/1/5 -12/1/5 -10/1/5
f -8/1/5 -12/1/5 -9/1/5
f -7/1/5 -12/1/5 -8/1/5
f -6/1/5 -8/1/5 -9/1/5
f -5/1/5 -8/1/5 -6/1/5
f -4/1/5 -8/1/5 -5/1/5
f -3/1/5 -8/1/5 -4/1/5
f -2/1/5 -4/1/5 -5/1/5
f -1/1/5 -4/1/5 -2/1/5
v -2 1 9
v 2 1 9
v -4 1 8
v -2 1 8
v 2 1 8
v 4 1 8
v -6 1 7
v -4 1 7
v 4 1 7
v 6 1 7
v -7 1 6
v -6 1 6
v 6 1 6
v 7 1 6
v -8 1 4
v -7 1 4
v 7 1 4
v 8 1 4
v -9 1 2
v -8 1 2
v -2 1 2
v 2 1 2
v 8 1 2
v 9 1 2
v -9 1 -2
v -8 1 -2
v -2 1 -2
v 2 1 -2
v 8 1 -2
v 9 1 -2
v -8 1 -4
v -7 1 -4
v 7 1 -4
v 8 1 -4
v -7 1 -6
v -6 1 -6
v 6 1 -6
v 7 1 -6
v -6 1 -7
v -4 1 -7
v 4 1 -7
v 6 1 -7
v -4 1 -8
v -2 1 -8
v 2 1 -8
v 4 1 -8
v -2 1 -9
v 2 1 -9
f -48/2/6 -47/2/6 -45/2/6
f -45/2/6 -47/2/6 -44/2/6
f -46/2/6 -45/2/6 -41/2/6
f -44/2/6 -43/2/6 -41/2/6
f -45/2/6 -44/2/6 -41/2/6
f -41/2/6 -43/2/6 -40/2/6
f -42/2/6 -41/2/6 -37/2/6
f -40/2/6 -39/2/6 -37/2/6
f -41/2/6 -40/2/6 -37/2/6
f -37/2/6 -39/2/6 -36/2/6
f -38/2/6 -37/2/6 -33/2/6
f -36/2/6 -35/2/6 -33/2/6
f -37/2/6 -36/2/6 -33/2/6
f -33/2/6 -35/2/6 -32/2/6
f -34/2/6 -33/2/6 -29/2/6
f -32/2/6 -31/2/6 -29/2/6
f -33/2/6 -32/2/6 -29/2/6
f -29/2/6 -31/2/6 -28/2/6
f -28/2/6 -31/2/6 -27/2/6
f -27/2/6 -31/2/6 -26/2/6
f -30/2/6 -29/2/6 -24/2/6
f -29/2/6 -28/2/6 -24/2/6
f -24/2/6 -28/2/6 -23/2/6
f -23/2/6 -28/2/6 -22/2/6
f -26/2/6 -25/2/6 -21/2/6
f -27/2/6 -26/2/6 -21/2/6
f -21/2/6 -25/2/6 -20/2/6
f -20/2/6 -25/2/6 -19/2/6
f -23/2/6 -22/2/6 -18/2/6
f -21/2/6 -20/2/6 -18/2/6
f -22/2/6 -21/2/6 -18/2/6
f -18/2/6 -20/2/6 -17/2/6
f -17/2/6 -20/2/6 -16/2/6
f -16/2/6 -20/2/6 -15/2/6
f -17/2/6 -16/2/6 -14/2/6
f -14/2/6 -16/2/6 -13/2/6
f -13/2/6 -16/2/6 -12/2/6
f -12/2/6 -16/2/6 -11/2/6
f -13/2/6 -12/2/6 -10/2/6
f -10/2/6 -12/2/6 -9/2/6
f -9/2/6 -12/2/6 -8/2/6
f -8/2/6 -12/2/6 -7/2/6
f -9/2/6 -8/2/6 -6/2/6
f -6/2/6 -8/2/6 -5/2/6
f -5/2/6 -8/2/6 -4/2/6
f -4/2/6 -8/2/6 -3/2/6
f -5/2/6 -4/2/6 -2/2/6
f -2/2/6 -4/2/6 -1/2/6
v -2 2 2
v 2 2 2
v -1 2 1
v 1 2 1
v -1 2 -1
v 1 2 -1
v -2 2 -2
v 2 2 -2
f -8/1/6 -7/1/6 -6/1/6
f -6/1/6 -7/1/6 -5/1/6
f -8/1/6 -6/1/6 -4/1/6
f -5/1/6 -7/1/6 -3/1/6
f -8/1/6 -4/1/6 -2/1/6
f -4/1/6 -3/1/6 -2/1/6
f -3/1/6 -7/1/6 -1/1/6
f -2/1/6 -3/1/6 -1/1/6
v -2 20 9
v 2 20 9
v -4 20 8
v -2 20 8
v 2 20 8
v 4 20 8
v -6 20 7
v -4 20 7
v 4 20 7
v 6 20 7
v -7 20 6
v -6 20 6
v 6 20 6
v 7 20 6
v -8 20 4
v -7 20 4
v 7 20 4
v 8 20 4
v -9 20 2
v -8 20 2
v 8 20 2
v 9 20 2
v -9 20 -2
v -8 20 -2
v 8 20 -2
v 9 20 -2
v -8 20 -4
v -7 20 -4
v 7 20 -4
v 8 20 -4
v -7 20 -6
v -6 20 -6
v 6 20 -6
v 7 20 -6
v -6 20 -7
v -4 20 -7
v 4 20 -7
v 6 20 -7
v -4 20 -8
v -2 20 -8
v 2 20 -8
v 4 20 -8
v -2 20 -9
v 2 20 -9
f -44/1/6 -43/1/6 -41/1/6
f -41/1/6 -43/1/6 -40/1/6
f -42/1/6 -41/1/6 -37/1/6
f -40/1/6 -39/1/6 -37/1/6
f -41/1/6 -40/1/6 -37/1/6
f -37/1/6 -39/1/6 -36/1/6
f -38/1/6 -37/1/6 -33/1/6
f -36/1/6 -35/1/6 -33/1/6
f -37/1/6 -36/1/6 -33/1/6
f -33/1/6 -35/1/6 -32/1/6
f -34/1/6 -33/1/6 -29/1/6
f -32/1/6 -31/1/6 -29/1/6
f -33/1/6 -32/1/6 -29/1/6
f -29/1/6 -31/1/6 -28/1/6
f -30/1/6 -29/1/6 -25/1/6
f -28/1/6 -27/1/6 -25/1/6
f -29/1/6 -28/1/6 -25/1/6
f -25/1/6 -27/1/6 -24/1/6
f -26/1/6 -25/1/6 -22/1/6
f -24/1/6 -23/1/6 -22/1/6
f -25/1/6 -24/1/6 -22/1/6
f -22/1/6 -23/1/6 -21/1/6
f -21/1/6 -23/1/6 -20/1/6
f -20/1/6 -23/1/6 -19/1/6
f -21/1/6 -20/1/6 -18/1/6
f -18/1/6 -20/1/6 -17/1/6
f -17/1/6 -20/1/6 -16/1/6
f -16/1/6 -20/1/6 -15/1/6
f -17/1/6 -16/1/6 -14/1/6
f -14/1/6 -16/1/6 -13/1/6
f -13/1/6 -16/1/6 -12/1/6
f -12/1/6 -16/1/6 -11/1/6
f -13/1/6 -12/1/6 -10/1/6
f -10/1/6 -12/1/6 -9/1/6
f -9/1/6 -12/1/6 -8/1/6
f -8/1/6 -12/1/6 -7/1/6
f -9/1/6 -8/1/6 -6/1/6
f -6/1/6 -8/1/6 -5/1/6
f -5/1/6 -8/1/6 -4/1/6
f -4/1/6 -8/1/6 -3/1/6
f -5/1/6 -4/1/6 -2/1/6
f -2/1/6 -4/1/6 -1/1/6
