# MagicaVoxel @ ephtracy

# material
mtllib spkr_single.mtl
usemtl palette

# normals
vn -1 0 0
vn 1 0 0
vn 0 0 1
vn 0 0 -1
vn 0 -1 0
vn 0 1 0

# texcoords
vt 0.982422 0.5
vt 0.986328 0.5
vt 0.990234 0.5
vt 0.994141 0.5

# verts and faces
v -9.5 0 7.5
v -9.5 0 -7.5
v -9.5 19 7.5
v -9.5 19 -7.5
f -2/4/1 -3/4/1 -4/4/1
f -1/4/1 -3/4/1 -2/4/1
v -1.5 8 6.5
v -1.5 8 5.5
v -1.5 11 6.5
v -1.5 11 5.5
f -2/4/1 -3/4/1 -4/4/1
f -1/4/1 -3/4/1 -2/4/1
v 0.5 2 7.5
v 0.5 2 6.5
v 0.5 3 7.5
v 0.5 3 6.5
v 0.5 16 7.5
v 0.5 16 6.5
v 0.5 17 7.5
v 0.5 17 6.5
f -6/1/1 -7/1/1 -8/1/1
f -5/1/1 -7/1/1 -6/1/1
f -2/1/1 -3/1/1 -4/1/1
f -1/1/1 -3/1/1 -2/1/1
v 1.5 14 6.5
v 1.5 14 5.5
v 1.5 15 6.5
v 1.5 15 5.5
f -2/2/1 -3/2/1 -4/2/1
f -1/2/1 -3/2/1 -2/2/1
v 2.5 4 6.5
v 2.5 4 5.5
v 2.5 5 6.5
v 2.5 5 5.5
v 2.5 15 7.5
v 2.5 15 6.5
v 2.5 16 7.5
v 2.5 16 6.5
f -6/2/1 -7/2/1 -8/2/1
f -5/2/1 -7/2/1 -6/2/1
f -2/1/1 -3/1/1 -4/1/1
f -1/1/1 -3/1/1 -2/1/1
v 3.5 3 7.5
v 3.5 3 6.5
v 3.5 4 7.5
v 3.5 4 6.5
v 3.5 5 6.5
v 3.5 5 5.5
v 3.5 6 6.5
v 3.5 6 5.5
v 3.5 13 6.5
v 3.5 13 5.5
v 3.5 14 6.5
v 3.5 14 5.5
f -10/1/1 -11/1/1 -12/1/1
f -9/1/1 -11/1/1 -10/1/1
f -6/2/1 -7/2/1 -8/2/1
f -5/2/1 -7/2/1 -6/2/1
f -2/2/1 -3/2/1 -4/2/1
f -1/2/1 -3/2/1 -2/2/1
v 4.5 4 7.5
v 4.5 4 6.5
v 4.5 5 7.5
v 4.5 5 6.5
v 4.5 6 6.5
v 4.5 6 5.5
v 4.5 8 6.5
v 4.5 8 5.5
v 4.5 11 6.5
v 4.5 11 5.5
v 4.5 13 6.5
v 4.5 13 5.5
v 4.5 14 7.5
v 4.5 14 6.5
v 4.5 15 7.5
v 4.5 15 6.5
f -14/1/1 -15/1/1 -16/1/1
f -13/1/1 -15/1/1 -14/1/1
f -10/2/1 -11/2/1 -12/2/1
f -9/2/1 -11/2/1 -10/2/1
f -6/2/1 -7/2/1 -8/2/1
f -5/2/1 -7/2/1 -6/2/1
f -2/1/1 -3/1/1 -4/1/1
f -1/1/1 -3/1/1 -2/1/1
v 5.5 5 7.5
v 5.5 5 6.5
v 5.5 7 7.5
v 5.5 7 6.5
v 5.5 8 6.5
v 5.5 8 5.5
v 5.5 11 6.5
v 5.5 11 5.5
v 5.5 12 7.5
v 5.5 12 6.5
v 5.5 14 7.5
v 5.5 14 6.5
f -10/1/1 -11/1/1 -12/1/1
f -9/1/1 -11/1/1 -10/1/1
f -6/2/1 -7/2/1 -8/2/1
f -5/2/1 -7/2/1 -6/2/1
f -2/1/1 -3/1/1 -4/1/1
f -1/1/1 -3/1/1 -2/1/1
v 6.5 7 7.5
v 6.5 7 6.5
v 6.5 9 7.5
v 6.5 9 6.5
v 6.5 10 7.5
v 6.5 10 6.5
v 6.5 12 7.5
v 6.5 12 6.5
f -6/1/1 -7/1/1 -8/1/1
f -5/1/1 -7/1/1 -6/1/1
f -2/1/1 -3/1/1 -4/1/1
f -1/1/1 -3/1/1 -2/1/1
v 7.5 9 7.5
v 7.5 9 6.5
v 7.5 10 7.5
v 7.5 10 6.5
f -2/1/1 -3/1/1 -4/1/1
f -1/1/1 -3/1/1 -2/1/1
v -7.5 9 7.5
v -7.5 9 6.5
v -7.5 10 7.5
v -7.5 10 6.5
f -4/1/2 -3/1/2 -2/1/2
f -2/1/2 -3/1/2 -1/1/2
v -6.5 7 7.5
v -6.5 7 6.5
v -6.5 9 7.5
v -6.5 9 6.5
v -6.5 10 7.5
v -6.5 10 6.5
v -6.5 12 7.5
v -6.5 12 6.5
f -8/1/2 -7/1/2 -6/1/2
f -6/1/2 -7/1/2 -5/1/2
f -4/1/2 -3/1/2 -2/1/2
f -2/1/2 -3/1/2 -1/1/2
v -5.5 5 7.5
v -5.5 5 6.5
v -5.5 7 7.5
v -5.5 7 6.5
v -5.5 8 6.5
v -5.5 8 5.5
v -5.5 11 6.5
v -5.5 11 5.5
v -5.5 12 7.5
v -5.5 12 6.5
v -5.5 14 7.5
v -5.5 14 6.5
f -12/1/2 -11/1/2 -10/1/2
f -10/1/2 -11/1/2 -9/1/2
f -8/2/2 -7/2/2 -6/2/2
f -6/2/2 -7/2/2 -5/2/2
f -4/1/2 -3/1/2 -2/1/2
f -2/1/2 -3/1/2 -1/1/2
v -4.5 4 7.5
v -4.5 4 6.5
v -4.5 5 7.5
v -4.5 5 6.5
v -4.5 6 6.5
v -4.5 6 5.5
v -4.5 8 6.5
v -4.5 8 5.5
v -4.5 11 6.5
v -4.5 11 5.5
v -4.5 13 6.5
v -4.5 13 5.5
v -4.5 14 7.5
v -4.5 14 6.5
v -4.5 15 7.5
v -4.5 15 6.5
f -16/1/2 -15/1/2 -14/1/2
f -14/1/2 -15/1/2 -13/1/2
f -12/2/2 -11/2/2 -10/2/2
f -10/2/2 -11/2/2 -9/2/2
f -8/2/2 -7/2/2 -6/2/2
f -6/2/2 -7/2/2 -5/2/2
f -4/1/2 -3/1/2 -2/1/2
f -2/1/2 -3/1/2 -1/1/2
v -3.5 5 6.5
v -3.5 5 5.5
v -3.5 6 6.5
v -3.5 6 5.5
v -3.5 13 6.5
v -3.5 13 5.5
v -3.5 14 6.5
v -3.5 14 5.5
f -8/2/2 -7/2/2 -6/2/2
f -6/2/2 -7/2/2 -5/2/2
f -4/2/2 -3/2/2 -2/2/2
f -2/2/2 -3/2/2 -1/2/2
v -2.5 3 7.5
v -2.5 3 6.5
v -2.5 4 7.5
v -2.5 4 6.5
v -2.5 15 7.5
v -2.5 15 6.5
v -2.5 16 7.5
v -2.5 16 6.5
f -8/1/2 -7/1/2 -6/1/2
f -6/1/2 -7/1/2 -5/1/2
f -4/1/2 -3/1/2 -2/1/2
f -2/1/2 -3/1/2 -1/1/2
v -1.5 4 6.5
v -1.5 4 5.5
v -1.5 5 6.5
v -1.5 5 5.5
v -1.5 14 6.5
v -1.5 14 5.5
v -1.5 15 6.5
v -1.5 15 5.5
f -8/2/2 -7/2/2 -6/2/2
f -6/2/2 -7/2/2 -5/2/2
f -4/2/2 -3/2/2 -2/2/2
f -2/2/2 -3/2/2 -1/2/2
v -0.5 2 7.5
v -0.5 2 6.5
v -0.5 3 7.5
v -0.5 3 6.5
v -0.5 16 7.5
v -0.5 16 6.5
v -0.5 17 7.5
v -0.5 17 6.5
f -8/1/2 -7/1/2 -6/1/2
f -6/1/2 -7/1/2 -5/1/2
f -4/1/2 -3/1/2 -2/1/2
f -2/1/2 -3/1/2 -1/1/2
v 1.5 8 6.5
v 1.5 8 5.5
v 1.5 11 6.5
v 1.5 11 5.5
f -4/4/2 -3/4/2 -2/4/2
f -2/4/2 -3/4/2 -1/4/2
v 9.5 0 7.5
v 9.5 0 -7.5
v 9.5 19 7.5
v 9.5 19 -7.5
f -4/4/2 -3/4/2 -2/4/2
f -2/4/2 -3/4/2 -1/4/2
v -9.5 0 7.5
v -9.5 19 7.5
v -8.5 8 7.5
v -8.5 11 7.5
v -7.5 6 7.5
v -7.5 8 7.5
v -7.5 9 7.5
v -7.5 10 7.5
v -7.5 11 7.5
v -7.5 13 7.5
v -6.5 4 7.5
v -6.5 6 7.5
v -6.5 7 7.5
v -6.5 9 7.5
v -6.5 10 7.5
v -6.5 12 7.5
v -6.5 13 7.5
v -6.5 15 7.5
v -5.5 3 7.5
v -5.5 4 7.5
v -5.5 5 7.5
v -5.5 7 7.5
v -5.5 12 7.5
v -5.5 14 7.5
v -5.5 15 7.5
v -5.5 16 7.5
v -4.5 4 7.5
v -4.5 5 7.5
v -4.5 14 7.5
v -4.5 15 7.5
v -3.5 2 7.5
v -3.5 3 7.5
v -3.5 16 7.5
v -3.5 17 7.5
v -2.5 3 7.5
v -2.5 4 7.5
v -2.5 15 7.5
v -2.5 16 7.5
v -1.5 1 7.5
v -1.5 2 7.5
v -1.5 17 7.5
v -1.5 18 7.5
v -0.5 2 7.5
v -0.5 3 7.5
v -0.5 16 7.5
v -0.5 17 7.5
v 0.5 2 7.5
v 0.5 3 7.5
v 0.5 16 7.5
v 0.5 17 7.5
v 1.5 1 7.5
v 1.5 2 7.5
v 1.5 17 7.5
v 1.5 18 7.5
v 2.5 15 7.5
v 2.5 16 7.5
v 3.5 2 7.5
v 3.5 3 7.5
v 3.5 4 7.5
v 3.5 16 7.5
v 3.5 17 7.5
v 4.5 4 7.5
v 4.5 5 7.5
v 4.5 14 7.5
v 4.5 15 7.5
v 5.5 3 7.5
v 5.5 4 7.5
v 5.5 5 7.5
v 5.5 7 7.5
v 5.5 12 7.5
v 5.5 14 7.5
v 5.5 15 7.5
v 5.5 16 7.5
v 6.5 4 7.5
v 6.5 6 7.5
v 6.5 7 7.5
v 6.5 9 7.5
v 6.5 10 7.5
v 6.5 12 7.5
v 6.5 13 7.5
v 6.5 15 7.5
v 7.5 6 7.5
v 7.5 8 7.5
v 7.5 9 7.5
v 7.5 10 7.5
v 7.5 11 7.5
v 7.5 13 7.5
v 8.5 8 7.5
v 8.5 11 7.5
v 9.5 0 7.5
v 9.5 19 7.5
f -89/4/3 -90/4/3 -91/4/3
f -88/4/3 -90/4/3 -89/4/3
f -87/4/3 -89/4/3 -91/4/3
f -86/1/3 -88/1/3 -89/1/3
f -86/4/3 -89/4/3 -87/4/3
f -85/1/3 -88/1/3 -86/1/3
f -84/1/3 -88/1/3 -85/1/3
f -83/4/3 -90/4/3 -88/4/3
f -83/1/3 -88/1/3 -84/1/3
f -82/4/3 -90/4/3 -83/4/3
f -81/4/3 -87/4/3 -91/4/3
f -80/1/3 -86/1/3 -87/1/3
f -80/4/3 -87/4/3 -81/4/3
f -80/1/3 -85/1/3 -86/1/3
f -79/1/3 -85/1/3 -80/1/3
f -78/1/3 -85/1/3 -79/1/3
f -77/1/3 -82/1/3 -83/1/3
f -77/1/3 -83/1/3 -84/1/3
f -76/1/3 -82/1/3 -77/1/3
f -75/4/3 -90/4/3 -82/4/3
f -75/1/3 -82/1/3 -76/1/3
f -74/4/3 -90/4/3 -75/4/3
f -73/4/3 -81/4/3 -91/4/3
f -72/1/3 -79/1/3 -80/1/3
f -72/4/3 -81/4/3 -73/4/3
f -72/1/3 -80/1/3 -81/1/3
f -71/1/3 -79/1/3 -72/1/3
f -70/1/3 -79/1/3 -71/1/3
f -69/1/3 -74/1/3 -75/1/3
f -69/1/3 -75/1/3 -76/1/3
f -68/1/3 -74/1/3 -69/1/3
f -67/4/3 -90/4/3 -74/4/3
f -67/1/3 -74/1/3 -68/1/3
f -66/4/3 -90/4/3 -67/4/3
f -65/1/3 -71/1/3 -72/1/3
f -65/1/3 -72/1/3 -73/1/3
f -64/1/3 -71/1/3 -65/1/3
f -63/1/3 -66/1/3 -67/1/3
f -63/1/3 -67/1/3 -68/1/3
f -62/1/3 -66/1/3 -63/1/3
f -61/4/3 -73/4/3 -91/4/3
f -60/1/3 -65/1/3 -73/1/3
f -60/4/3 -73/4/3 -61/4/3
f -59/4/3 -90/4/3 -66/4/3
f -59/1/3 -66/1/3 -62/1/3
f -58/4/3 -90/4/3 -59/4/3
f -57/1/3 -65/1/3 -60/1/3
f -57/1/3 -60/1/3 -61/1/3
f -56/1/3 -65/1/3 -57/1/3
f -55/1/3 -58/1/3 -59/1/3
f -55/1/3 -59/1/3 -62/1/3
f -54/1/3 -58/1/3 -55/1/3
f -53/4/3 -61/4/3 -91/4/3
f -52/1/3 -57/1/3 -61/1/3
f -52/4/3 -61/4/3 -53/4/3
f -51/4/3 -90/4/3 -58/4/3
f -51/1/3 -58/1/3 -54/1/3
f -50/4/3 -90/4/3 -51/4/3
f -49/1/3 -57/1/3 -52/1/3
f -49/1/3 -52/1/3 -53/1/3
f -48/1/3 -57/1/3 -49/1/3
f -47/1/3 -50/1/3 -51/1/3
f -47/1/3 -51/1/3 -54/1/3
f -46/1/3 -50/1/3 -47/1/3
f -45/1/3 -49/1/3 -53/1/3
f -42/1/3 -50/1/3 -46/1/3
f -41/1/3 -44/1/3 -45/1/3
f -41/4/3 -53/4/3 -91/4/3
f -41/1/3 -45/1/3 -53/1/3
f -40/1/3 -44/1/3 -41/1/3
f -39/1/3 -42/1/3 -43/1/3
f -39/1/3 -50/1/3 -42/1/3
f -38/4/3 -90/4/3 -50/4/3
f -38/1/3 -50/1/3 -39/1/3
f -36/1/3 -39/1/3 -43/1/3
f -35/1/3 -44/1/3 -40/1/3
f -35/4/3 -40/4/3 -41/4/3
f -34/1/3 -44/1/3 -35/1/3
f -32/1/3 -36/1/3 -37/1/3
f -32/1/3 -39/1/3 -36/1/3
f -31/4/3 -38/4/3 -39/4/3
f -31/1/3 -39/1/3 -32/1/3
f -30/1/3 -33/1/3 -34/1/3
f -27/1/3 -32/1/3 -37/1/3
f -26/4/3 -34/4/3 -35/4/3
f -26/1/3 -29/1/3 -30/1/3
f -26/1/3 -30/1/3 -34/1/3
f -25/1/3 -29/1/3 -26/1/3
f -24/1/3 -29/1/3 -25/1/3
f -21/1/3 -27/1/3 -28/1/3
f -20/1/3 -32/1/3 -27/1/3
f -20/1/3 -27/1/3 -21/1/3
f -19/4/3 -31/4/3 -32/4/3
f -19/1/3 -32/1/3 -20/1/3
f -18/1/3 -23/1/3 -24/1/3
f -18/4/3 -25/4/3 -26/4/3
f -18/1/3 -24/1/3 -25/1/3
f -17/1/3 -23/1/3 -18/1/3
f -16/1/3 -23/1/3 -17/1/3
f -13/1/3 -21/1/3 -22/1/3
f -13/1/3 -20/1/3 -21/1/3
f -12/1/3 -20/1/3 -13/1/3
f -11/4/3 -19/4/3 -20/4/3
f -11/1/3 -20/1/3 -12/1/3
f -10/1/3 -15/1/3 -16/1/3
f -10/1/3 -16/1/3 -17/1/3
f -10/4/3 -17/4/3 -18/4/3
f -9/1/3 -15/1/3 -10/1/3
f -8/1/3 -15/1/3 -9/1/3
f -7/1/3 -12/1/3 -13/1/3
f -7/1/3 -13/1/3 -14/1/3
f -6/1/3 -12/1/3 -7/1/3
f -5/4/3 -11/4/3 -12/4/3
f -5/1/3 -12/1/3 -6/1/3
f -4/1/3 -6/1/3 -7/1/3
f -4/1/3 -8/1/3 -9/1/3
f -4/4/3 -9/4/3 -10/4/3
f -4/1/3 -7/1/3 -8/1/3
f -3/4/3 -5/4/3 -6/4/3
f -3/1/3 -6/1/3 -4/1/3
f -2/4/3 -41/4/3 -91/4/3
f -2/4/3 -35/4/3 -41/4/3
f -2/4/3 -3/4/3 -4/4/3
f -2/4/3 -10/4/3 -18/4/3
f -2/4/3 -26/4/3 -35/4/3
f -2/4/3 -4/4/3 -10/4/3
f -2/4/3 -18/4/3 -26/4/3
f -1/4/3 -90/4/3 -38/4/3
f -1/4/3 -3/4/3 -2/4/3
f -1/4/3 -38/4/3 -31/4/3
f -1/4/3 -31/4/3 -19/4/3
f -1/4/3 -5/4/3 -3/4/3
f -1/4/3 -19/4/3 -11/4/3
f -1/4/3 -11/4/3 -5/4/3
v -7.5 9 6.5
v -7.5 10 6.5
v -6.5 7 6.5
v -6.5 9 6.5
v -6.5 10 6.5
v -6.5 12 6.5
v -5.5 5 6.5
v -5.5 7 6.5
v -5.5 8 6.5
v -5.5 11 6.5
v -5.5 12 6.5
v -5.5 14 6.5
v -4.5 4 6.5
v -4.5 5 6.5
v -4.5 6 6.5
v -4.5 8 6.5
v -4.5 11 6.5
v -4.5 13 6.5
v -4.5 14 6.5
v -4.5 15 6.5
v -3.5 5 6.5
v -3.5 6 6.5
v -3.5 13 6.5
v -3.5 14 6.5
v -2.5 3 6.5
v -2.5 4 6.5
v -2.5 15 6.5
v -2.5 16 6.5
v -1.5 4 6.5
v -1.5 5 6.5
v -1.5 8 6.5
v -1.5 11 6.5
v -1.5 14 6.5
v -1.5 15 6.5
v -0.5 2 6.5
v -0.5 3 6.5
v -0.5 16 6.5
v -0.5 17 6.5
v 0.5 2 6.5
v 0.5 3 6.5
v 0.5 16 6.5
v 0.5 17 6.5
v 1.5 8 6.5
v 1.5 11 6.5
v 1.5 14 6.5
v 1.5 15 6.5
v 2.5 4 6.5
v 2.5 5 6.5
v 2.5 15 6.5
v 2.5 16 6.5
v 3.5 3 6.5
v 3.5 4 6.5
v 3.5 5 6.5
v 3.5 6 6.5
v 3.5 13 6.5
v 3.5 14 6.5
v 4.5 4 6.5
v 4.5 5 6.5
v 4.5 6 6.5
v 4.5 8 6.5
v 4.5 11 6.5
v 4.5 13 6.5
v 4.5 14 6.5
v 4.5 15 6.5
v 5.5 5 6.5
v 5.5 7 6.5
v 5.5 8 6.5
v 5.5 11 6.5
v 5.5 12 6.5
v 5.5 14 6.5
v 6.5 7 6.5
v 6.5 9 6.5
v 6.5 10 6.5
v 6.5 12 6.5
v 7.5 9 6.5
v 7.5 10 6.5
f -73/2/3 -75/2/3 -76/2/3
f -72/2/3 -75/2/3 -73/2/3
f -69/2/3 -73/2/3 -74/2/3
f -69/2/3 -71/2/3 -72/2/3
f -69/2/3 -72/2/3 -73/2/3
f -68/2/3 -71/2/3 -69/2/3
f -67/2/3 -71/2/3 -68/2/3
f -66/2/3 -71/2/3 -67/2/3
f -63/2/3 -69/2/3 -70/2/3
f -63/2/3 -68/2/3 -69/2/3
f -62/2/3 -68/2/3 -63/2/3
f -61/2/3 -68/2/3 -62/2/3
f -60/2/3 -66/2/3 -67/2/3
f -60/2/3 -65/2/3 -66/2/3
f -59/2/3 -65/2/3 -60/2/3
f -58/2/3 -65/2/3 -59/2/3
f -56/2/3 -62/2/3 -63/2/3
f -56/2/3 -63/2/3 -64/2/3
f -55/2/3 -62/2/3 -56/2/3
f -54/2/3 -57/2/3 -58/2/3
f -54/2/3 -58/2/3 -59/2/3
f -53/2/3 -57/2/3 -54/2/3
f -51/2/3 -56/2/3 -64/2/3
f -50/2/3 -57/2/3 -53/2/3
f -48/2/3 -51/2/3 -52/2/3
f -48/2/3 -56/2/3 -51/2/3
f -47/2/3 -56/2/3 -48/2/3
f -44/2/3 -49/2/3 -50/2/3
f -44/2/3 -50/2/3 -53/2/3
f -43/2/3 -49/2/3 -44/2/3
f -41/2/3 -48/2/3 -52/2/3
f -40/2/3 -49/2/3 -43/2/3
f -38/2/3 -41/2/3 -42/2/3
f -37/2/3 -48/2/3 -41/2/3
f -37/2/3 -41/2/3 -38/2/3
f -36/2/3 -39/2/3 -40/2/3
f -36/2/3 -40/2/3 -43/2/3
f -35/2/3 -39/2/3 -36/2/3
f -34/4/3 -45/4/3 -46/4/3
f -33/4/3 -45/4/3 -34/4/3
f -31/2/3 -36/2/3 -43/2/3
f -30/2/3 -48/2/3 -37/2/3
f -28/2/3 -31/2/3 -32/2/3
f -28/2/3 -36/2/3 -31/2/3
f -27/2/3 -36/2/3 -28/2/3
f -26/2/3 -29/2/3 -30/2/3
f -26/2/3 -30/2/3 -37/2/3
f -25/2/3 -29/2/3 -26/2/3
f -24/2/3 -29/2/3 -25/2/3
f -21/2/3 -28/2/3 -32/2/3
f -20/2/3 -23/2/3 -24/2/3
f -20/2/3 -24/2/3 -25/2/3
f -19/2/3 -23/2/3 -20/2/3
f -18/2/3 -23/2/3 -19/2/3
f -15/2/3 -21/2/3 -22/2/3
f -14/2/3 -28/2/3 -21/2/3
f -14/2/3 -21/2/3 -15/2/3
f -13/2/3 -28/2/3 -14/2/3
f -12/2/3 -17/2/3 -18/2/3
f -12/2/3 -18/2/3 -19/2/3
f -11/2/3 -17/2/3 -12/2/3
f -10/2/3 -17/2/3 -11/2/3
f -9/2/3 -15/2/3 -16/2/3
f -9/2/3 -14/2/3 -15/2/3
f -8/2/3 -14/2/3 -9/2/3
f -7/2/3 -14/2/3 -8/2/3
f -6/2/3 -10/2/3 -11/2/3
f -6/2/3 -8/2/3 -9/2/3
f -6/2/3 -9/2/3 -10/2/3
f -5/2/3 -8/2/3 -6/2/3
f -4/2/3 -8/2/3 -5/2/3
f -3/2/3 -8/2/3 -4/2/3
f -2/2/3 -4/2/3 -5/2/3
f -1/2/3 -4/2/3 -2/2/3
v -5.5 8 5.5
v -5.5 11 5.5
v -4.5 6 5.5
v -4.5 8 5.5
v -4.5 11 5.5
v -4.5 13 5.5
v -3.5 5 5.5
v -3.5 6 5.5
v -3.5 13 5.5
v -3.5 14 5.5
v -1.5 4 5.5
v -1.5 5 5.5
v -1.5 8 5.5
v -1.5 11 5.5
v -1.5 14 5.5
v -1.5 15 5.5
v 1.5 8 5.5
v 1.5 11 5.5
v 1.5 14 5.5
v 1.5 15 5.5
v 2.5 4 5.5
v 2.5 5 5.5
v 3.5 5 5.5
v 3.5 6 5.5
v 3.5 13 5.5
v 3.5 14 5.5
v 4.5 6 5.5
v 4.5 8 5.5
v 4.5 11 5.5
v 4.5 13 5.5
v 5.5 8 5.5
v 5.5 11 5.5
f -29/3/3 -31/3/3 -32/3/3
f -28/3/3 -31/3/3 -29/3/3
f -25/3/3 -29/3/3 -30/3/3
f -25/3/3 -27/3/3 -28/3/3
f -25/3/3 -28/3/3 -29/3/3
f -24/3/3 -27/3/3 -25/3/3
f -21/3/3 -25/3/3 -26/3/3
f -21/3/3 -23/3/3 -24/3/3
f -21/3/3 -24/3/3 -25/3/3
f -20/3/3 -23/3/3 -21/3/3
f -19/3/3 -23/3/3 -20/3/3
f -18/3/3 -23/3/3 -19/3/3
f -16/3/3 -21/3/3 -22/3/3
f -16/3/3 -20/3/3 -21/3/3
f -15/3/3 -17/3/3 -18/3/3
f -15/3/3 -18/3/3 -19/3/3
f -14/3/3 -17/3/3 -15/3/3
f -13/3/3 -17/3/3 -14/3/3
f -12/3/3 -16/3/3 -22/3/3
f -12/3/3 -15/3/3 -16/3/3
f -12/3/3 -14/3/3 -15/3/3
f -11/3/3 -14/3/3 -12/3/3
f -10/3/3 -14/3/3 -11/3/3
f -9/3/3 -14/3/3 -10/3/3
f -8/3/3 -14/3/3 -9/3/3
f -7/3/3 -14/3/3 -8/3/3
f -6/3/3 -8/3/3 -9/3/3
f -5/3/3 -8/3/3 -6/3/3
f -4/3/3 -8/3/3 -5/3/3
f -3/3/3 -8/3/3 -4/3/3
f -2/3/3 -4/3/3 -5/3/3
f -1/3/3 -4/3/3 -2/3/3
v -9.5 0 -7.5
v -9.5 19 -7.5
v 9.5 0 -7.5
v 9.5 19 -7.5
f -4/4/4 -3/4/4 -2/4/4
f -2/4/4 -3/4/4 -1/4/4
v -9.5 0 7.5
v 9.5 0 7.5
v -9.5 0 -7.5
v 9.5 0 -7.5
f -2/4/5 -3/4/5 -4/4/5
f -1/4/5 -3/4/5 -2/4/5
v -1.5 8 6.5
v 1.5 8 6.5
v -1.5 8 5.5
v 1.5 8 5.5
f -2/4/5 -3/4/5 -4/4/5
f -1/4/5 -3/4/5 -2/4/5
v -7.5 10 7.5
v -6.5 10 7.5
v 6.5 10 7.5
v 7.5 10 7.5
v -7.5 10 6.5
v -6.5 10 6.5
v 6.5 10 6.5
v 7.5 10 6.5
f -4/1/5 -7/1/5 -8/1/5
f -3/1/5 -7/1/5 -4/1/5
f -2/1/5 -5/1/5 -6/1/5
f -1/1/5 -5/1/5 -2/1/5
v -5.5 11 6.5
v -4.5 11 6.5
v 4.5 11 6.5
v 5.5 11 6.5
v -5.5 11 5.5
v -4.5 11 5.5
v 4.5 11 5.5
v 5.5 11 5.5
f -4/2/5 -7/2/5 -8/2/5
f -3/2/5 -7/2/5 -4/2/5
f -2/2/5 -5/2/5 -6/2/5
f -1/2/5 -5/2/5 -2/2/5
v -6.5 12 7.5
v -5.5 12 7.5
v 5.5 12 7.5
v 6.5 12 7.5
v -6.5 12 6.5
v -5.5 12 6.5
v 5.5 12 6.5
v 6.5 12 6.5
f -4/1/5 -7/1/5 -8/1/5
f -3/1/5 -7/1/5 -4/1/5
f -2/1/5 -5/1/5 -6/1/5
f -1/1/5 -5/1/5 -2/1/5
v -4.5 13 6.5
v -3.5 13 6.5
v 3.5 13 6.5
v 4.5 13 6.5
v -4.5 13 5.5
v -3.5 13 5.5
v 3.5 13 5.5
v 4.5 13 5.5
f -4/2/5 -7/2/5 -8/2/5
f -3/2/5 -7/2/5 -4/2/5
f -2/2/5 -5/2/5 -6/2/5
f -1/2/5 -5/2/5 -2/2/5
v -5.5 14 7.5
v -4.5 14 7.5
v 4.5 14 7.5
v 5.5 14 7.5
v -5.5 14 6.5
v -4.5 14 6.5
v -3.5 14 6.5
v -1.5 14 6.5
v 1.5 14 6.5
v 3.5 14 6.5
v 4.5 14 6.5
v 5.5 14 6.5
v -3.5 14 5.5
v -1.5 14 5.5
v 1.5 14 5.5
v 3.5 14 5.5
f -12/1/5 -15/1/5 -16/1/5
f -11/1/5 -15/1/5 -12/1/5
f -6/1/5 -13/1/5 -14/1/5
f -5/1/5 -13/1/5 -6/1/5
f -4/2/5 -9/2/5 -10/2/5
f -3/2/5 -9/2/5 -4/2/5
f -2/2/5 -7/2/5 -8/2/5
f -1/2/5 -7/2/5 -2/2/5
v -4.5 15 7.5
v -2.5 15 7.5
v 2.5 15 7.5
v 4.5 15 7.5
v -4.5 15 6.5
v -2.5 15 6.5
v -1.5 15 6.5
v 1.5 15 6.5
v 2.5 15 6.5
v 4.5 15 6.5
v -1.5 15 5.5
v 1.5 15 5.5
f -8/1/5 -11/1/5 -12/1/5
f -7/1/5 -11/1/5 -8/1/5
f -4/1/5 -9/1/5 -10/1/5
f -3/1/5 -9/1/5 -4/1/5
f -2/2/5 -5/2/5 -6/2/5
f -1/2/5 -5/2/5 -2/2/5
v -2.5 16 7.5
v -0.5 16 7.5
v 0.5 16 7.5
v 2.5 16 7.5
v -2.5 16 6.5
v -0.5 16 6.5
v 0.5 16 6.5
v 2.5 16 6.5
f -4/1/5 -7/1/5 -8/1/5
f -3/1/5 -7/1/5 -4/1/5
f -2/1/5 -5/1/5 -6/1/5
f -1/1/5 -5/1/5 -2/1/5
v -0.5 17 7.5
v 0.5 17 7.5
v -0.5 17 6.5
v 0.5 17 6.5
f -2/1/5 -3/1/5 -4/1/5
f -1/1/5 -3/1/5 -2/1/5
v -0.5 2 7.5
v 0.5 2 7.5
v -0.5 2 6.5
v 0.5 2 6.5
f -4/1/6 -3/1/6 -2/1/6
f -2/1/6 -3/1/6 -1/1/6
v -2.5 3 7.5
v -0.5 3 7.5
v 0.5 3 7.5
v 3.5 3 7.5
v -2.5 3 6.5
v -0.5 3 6.5
v 0.5 3 6.5
v 3.5 3 6.5
f -8/1/6 -7/1/6 -4/1/6
f -4/1/6 -7/1/6 -3/1/6
f -6/1/6 -5/1/6 -2/1/6
f -2/1/6 -5/1/6 -1/1/6
v -4.5 4 7.5
v -2.5 4 7.5
v 3.5 4 7.5
v 4.5 4 7.5
v -4.5 4 6.5
v -2.5 4 6.5
v -1.5 4 6.5
v 2.5 4 6.5
v 3.5 4 6.5
v 4.5 4 6.5
v -1.5 4 5.5
v 2.5 4 5.5
f -12/1/6 -11/1/6 -8/1/6
f -8/1/6 -11/1/6 -7/1/6
f -10/1/6 -9/1/6 -4/1/6
f -4/1/6 -9/1/6 -3/1/6
f -6/2/6 -5/2/6 -2/2/6
f -2/2/6 -5/2/6 -1/2/6
v -5.5 5 7.5
v -4.5 5 7.5
v 4.5 5 7.5
v 5.5 5 7.5
v -5.5 5 6.5
v -4.5 5 6.5
v -3.5 5 6.5
v -1.5 5 6.5
v 2.5 5 6.5
v 3.5 5 6.5
v 4.5 5 6.5
v 5.5 5 6.5
v -3.5 5 5.5
v -1.5 5 5.5
v 2.5 5 5.5
v 3.5 5 5.5
f -16/1/6 -15/1/6 -12/1/6
f -12/1/6 -15/1/6 -11/1/6
f -14/1/6 -13/1/6 -6/1/6
f -6/1/6 -13/1/6 -5/1/6
f -10/2/6 -9/2/6 -4/2/6
f -4/2/6 -9/2/6 -3/2/6
f -8/2/6 -7/2/6 -2/2/6
f -2/2/6 -7/2/6 -1/2/6
v -4.5 6 6.5
v -3.5 6 6.5
v 3.5 6 6.5
v 4.5 6 6.5
v -4.5 6 5.5
v -3.5 6 5.5
v 3.5 6 5.5
v 4.5 6 5.5
f -8/2/6 -7/2/6 -4/2/6
f -4/2/6 -7/2/6 -3/2/6
f -6/2/6 -5/2/6 -2/2/6
f -2/2/6 -5/2/6 -1/2/6
v -6.5 7 7.5
v -5.5 7 7.5
v 5.5 7 7.5
v 6.5 7 7.5
v -6.5 7 6.5
v -5.5 7 6.5
v 5.5 7 6.5
v 6.5 7 6.5
f -8/1/6 -7/1/6 -4/1/6
f -4/1/6 -7/1/6 -3/1/6
f -6/1/6 -5/1/6 -2/1/6
f -2/1/6 -5/1/6 -1/1/6
v -5.5 8 6.5
v -4.5 8 6.5
v 4.5 8 6.5
v 5.5 8 6.5
v -5.5 8 5.5
v -4.5 8 5.5
v 4.5 8 5.5
v 5.5 8 5.5
f -8/2/6 -7/2/6 -4/2/6
f -4/2/6 -7/2/6 -3/2/6
f -6/2/6 -5/2/6 -2/2/6
f -2/2/6 -5/2/6 -1/2/6
v -7.5 9 7.5
v -6.5 9 7.5
v 6.5 9 7.5
v 7.5 9 7.5
v -7.5 9 6.5
v -6.5 9 6.5
v 6.5 9 6.5
v 7.5 9 6.5
f -8/1/6 -7/1/6 -4/1/6
f -4/1/6 -7/1/6 -3/1/6
f -6/1/6 -5/1/6 -2/1/6
f -2/1/6 -5/1/6 -1/1/6
v -1.5 11 6.5
v 1.5 11 6.5
v -1.5 11 5.5
v 1.5 11 5.5
f -4/4/6 -3/4/6 -2/4/6
f -2/4/6 -3/4/6 -1/4/6
v -9.5 19 7.5
v 9.5 19 7.5
v -9.5 19 -7.5
v 9.5 19 -7.5
f -4/4/6 -3/4/6 -2/4/6
f -2/4/6 -3/4/6 -1/4/6
