# MagicaVoxel @ ephtracy

# material
mtllib chr_man.mtl
usemtl palette

# normals
vn -1 0 0
vn 1 0 0
vn 0 0 1
vn 0 0 -1
vn 0 -1 0
vn 0 1 0

# texcoords
vt 0.0332031 0.5
vt 0.0605469 0.5
vt 0.310547 0.5
vt 0.341797 0.5
vt 0.478516 0.5
vt 0.482422 0.5
vt 0.646484 0.5
vt 0.787109 0.5
vt 0.814453 0.5
vt 0.982422 0.5
vt 0.986328 0.5
vt 0.990234 0.5
vt 0.994141 0.5

# verts and faces
v -4 2 0.5
v -4 2 -0.5
v -4 3 0.5
v -4 3 -0.5
v -4 6 2.5
v -4 6 0.5
v -4 6 -0.5
v -4 6 -1.5
v -4 7 2.5
v -4 7 0.5
v -4 7 -0.5
v -4 8 3.5
v -4 8 2.5
v -4 8 0.5
v -4 8 -0.5
v -4 10 3.5
v -4 10 0.5
v -4 10 -0.5
v -4 10 -1.5
v -4 11 0.5
v -4 11 -0.5
f -19/1/1 -20/1/1 -21/1/1
f -18/1/1 -20/1/1 -19/1/1
f -16/9/1 -18/9/1 -19/9/1
f -15/9/1 -18/9/1 -16/9/1
f -13/13/1 -16/13/1 -17/13/1
f -12/13/1 -16/13/1 -13/13/1
f -11/12/1 -14/12/1 -15/12/1
f -9/12/1 -12/12/1 -13/12/1
f -8/2/1 -11/2/1 -12/2/1
f -8/12/1 -12/12/1 -9/12/1
f -7/12/1 -14/12/1 -11/12/1
f -7/2/1 -11/2/1 -8/2/1
f -6/12/1 -9/12/1 -10/12/1
f -6/12/1 -8/12/1 -9/12/1
f -6/12/1 -7/12/1 -8/12/1
f -5/12/1 -7/12/1 -6/12/1
f -4/12/1 -14/12/1 -7/12/1
f -4/12/1 -7/12/1 -5/12/1
f -3/12/1 -14/12/1 -4/12/1
f -2/12/1 -4/12/1 -5/12/1
f -1/12/1 -4/12/1 -2/12/1
v -3 1 1.5
v -3 1 -1.5
v -3 2 2.5
v -3 2 1.5
v -3 2 0.5
v -3 2 -0.5
v -3 2 -1.5
v -3 2 -2.5
v -3 3 2.5
v -3 3 0.5
v -3 3 -0.5
v -3 3 -2.5
v -3 6 2.5
v -3 6 0.5
v -3 6 -0.5
v -3 6 -1.5
v -3 6 -2.5
v -3 7 0.5
v -3 7 -0.5
v -3 10 1.5
v -3 10 0.5
v -3 10 -0.5
v -3 10 -1.5
v -3 11 1.5
v -3 11 0.5
v -3 11 -0.5
v -3 11 -1.5
v -3 11 -2.5
v -3 12 0.5
v -3 12 -1.5
f -27/5/1 -29/5/1 -30/5/1
f -26/5/1 -29/5/1 -27/5/1
f -25/5/1 -29/5/1 -26/5/1
f -24/5/1 -29/5/1 -25/5/1
f -22/5/1 -27/5/1 -28/5/1
f -22/5/1 -26/5/1 -27/5/1
f -21/5/1 -26/5/1 -22/5/1
f -20/5/1 -23/5/1 -24/5/1
f -20/5/1 -24/5/1 -25/5/1
f -19/5/1 -23/5/1 -20/5/1
f -18/7/1 -21/7/1 -22/7/1
f -17/7/1 -21/7/1 -18/7/1
f -16/7/1 -19/7/1 -20/7/1
f -15/7/1 -19/7/1 -16/7/1
f -14/7/1 -19/7/1 -15/7/1
f -13/12/1 -16/12/1 -17/12/1
f -12/12/1 -16/12/1 -13/12/1
f -8/12/1 -14/12/1 -15/12/1
f -7/12/1 -10/12/1 -11/12/1
f -6/12/1 -10/12/1 -7/12/1
f -5/12/1 -8/12/1 -9/12/1
f -4/12/1 -14/12/1 -8/12/1
f -4/12/1 -8/12/1 -5/12/1
f -3/12/1 -14/12/1 -4/12/1
f -2/12/1 -5/12/1 -6/12/1
f -2/12/1 -4/12/1 -5/12/1
f -1/12/1 -4/12/1 -2/12/1
v -2 0 0.5
v -2 0 -0.5
v -2 1 0.5
v -2 1 -0.5
v -2 6 -2.5
v -2 6 -3.5
v -2 10 2.5
v -2 10 1.5
v -2 11 2.5
v -2 11 1.5
v -2 11 0.5
v -2 11 -1.5
v -2 11 -2.5
v -2 11 -3.5
v -2 12 1.5
v -2 12 0.5
v -2 12 -1.5
v -2 12 -2.5
f -16/8/1 -17/8/1 -18/8/1
f -15/8/1 -17/8/1 -16/8/1
f -10/12/1 -11/12/1 -12/12/1
f -9/12/1 -11/12/1 -10/12/1
f -6/12/1 -13/12/1 -14/12/1
f -5/12/1 -13/12/1 -6/12/1
f -4/12/1 -8/12/1 -9/12/1
f -3/12/1 -8/12/1 -4/12/1
f -2/12/1 -6/12/1 -7/12/1
f -1/12/1 -6/12/1 -2/12/1
v 1 0 0.5
v 1 0 -0.5
v 1 1 1.5
v 1 1 0.5
v 1 1 -0.5
v 1 1 -1.5
v 1 2 1.5
v 1 2 0.5
v 1 2 -0.5
v 1 2 -1.5
v 1 12 0.5
v 1 12 -0.5
v 1 12 -1.5
v 1 13 0.5
v 1 13 -0.5
v 1 13 -1.5
f -13/8/1 -15/8/1 -16/8/1
f -12/8/1 -15/8/1 -13/8/1
f -10/5/1 -13/5/1 -14/5/1
f -9/4/1 -12/4/1 -13/4/1
f -9/5/1 -13/5/1 -10/5/1
f -8/5/1 -11/5/1 -12/5/1
f -8/4/1 -12/4/1 -9/4/1
f -7/5/1 -11/5/1 -8/5/1
f -3/10/1 -5/10/1 -6/10/1
f -2/11/1 -4/11/1 -5/11/1
f -2/10/1 -5/10/1 -3/10/1
f -1/11/1 -4/11/1 -2/11/1
v 3 6 2.5
v 3 6 1.5
v 3 7 2.5
v 3 7 1.5
v 3 9 2.5
v 3 9 1.5
f -4/11/1 -5/11/1 -6/11/1
f -3/11/1 -5/11/1 -4/11/1
f -2/10/1 -3/10/1 -4/10/1
f -1/10/1 -3/10/1 -2/10/1
v -3 6 2.5
v -3 6 1.5
v -3 7 2.5
v -3 7 1.5
v -3 8 3.5
v -3 8 2.5
v -3 9 3.5
v -3 9 1.5
f -8/13/2 -7/13/2 -6/13/2
f -6/13/2 -7/13/2 -5/13/2
f -6/12/2 -5/12/2 -3/12/2
f -4/12/2 -3/12/2 -2/12/2
f -3/12/2 -5/12/2 -1/12/2
f -2/12/2 -3/12/2 -1/12/2
v -1 0 0.5
v -1 0 -0.5
v -1 1 1.5
v -1 1 0.5
v -1 1 -0.5
v -1 1 -1.5
v -1 2 1.5
v -1 2 0.5
v -1 2 -0.5
v -1 2 -1.5
f -10/8/2 -9/8/2 -7/8/2
f -7/8/2 -9/8/2 -6/8/2
f -8/5/2 -7/5/2 -4/5/2
f -7/6/2 -6/6/2 -3/6/2
f -4/5/2 -7/5/2 -3/5/2
f -6/5/2 -5/5/2 -2/5/2
f -3/6/2 -6/6/2 -2/6/2
f -2/5/2 -5/5/2 -1/5/2
v 2 0 0.5
v 2 0 -0.5
v 2 1 0.5
v 2 1 -0.5
v 2 6 -2.5
v 2 6 -3.5
v 2 10 -2.5
v 2 11 1.5
v 2 11 0.5
v 2 11 -1.5
v 2 11 -2.5
v 2 11 -3.5
v 2 12 1.5
v 2 12 0.5
v 2 12 -0.5
v 2 12 -1.5
v 2 12 -2.5
v 2 13 0.5
v 2 13 -0.5
v 2 13 -1.5
f -20/8/2 -19/8/2 -18/8/2
f -18/8/2 -19/8/2 -17/8/2
f -16/12/2 -15/12/2 -14/12/2
f -14/12/2 -15/12/2 -10/12/2
f -10/12/2 -15/12/2 -9/12/2
f -13/10/2 -12/10/2 -8/10/2
f -8/10/2 -12/10/2 -7/10/2
f -11/11/2 -10/11/2 -5/11/2
f -5/11/2 -10/11/2 -4/11/2
f -7/10/2 -6/10/2 -3/10/2
f -6/11/2 -5/11/2 -2/11/2
f -3/10/2 -6/10/2 -2/10/2
f -2/11/2 -5/11/2 -1/11/2
v 3 1 1.5
v 3 1 -1.5
v 3 2 2.5
v 3 2 1.5
v 3 2 0.5
v 3 2 -0.5
v 3 2 -1.5
v 3 2 -2.5
v 3 3 2.5
v 3 3 0.5
v 3 3 -0.5
v 3 3 -2.5
v 3 6 2.5
v 3 6 0.5
v 3 6 -0.5
v 3 6 -1.5
v 3 6 -2.5
v 3 7 0.5
v 3 7 -0.5
v 3 9 3.5
v 3 9 2.5
v 3 9 -1.5
v 3 10 3.5
v 3 10 2.5
v 3 10 -1.5
v 3 10 -2.5
v 3 11 0.5
v 3 11 -0.5
v 3 11 -1.5
v 3 11 -2.5
v 3 12 0.5
v 3 12 -0.5
v 3 12 -1.5
f -33/5/2 -32/5/2 -30/5/2
f -30/5/2 -32/5/2 -29/5/2
f -29/5/2 -32/5/2 -28/5/2
f -28/5/2 -32/5/2 -27/5/2
f -31/3/2 -30/3/2 -25/3/2
f -30/3/2 -29/3/2 -25/3/2
f -25/3/2 -29/3/2 -24/3/2
f -27/5/2 -26/5/2 -23/5/2
f -28/5/2 -27/5/2 -23/5/2
f -23/5/2 -26/5/2 -22/5/2
f -25/5/2 -24/5/2 -21/5/2
f -21/5/2 -24/5/2 -20/5/2
f -23/7/2 -22/7/2 -19/7/2
f -19/7/2 -22/7/2 -18/7/2
f -18/7/2 -22/7/2 -17/7/2
f -20/12/2 -19/12/2 -16/12/2
f -16/12/2 -19/12/2 -15/12/2
f -18/12/2 -17/12/2 -12/12/2
f -14/12/2 -13/12/2 -11/12/2
f -11/12/2 -13/12/2 -10/12/2
f -12/12/2 -17/12/2 -9/12/2
f -9/12/2 -17/12/2 -8/12/2
f -9/11/2 -8/11/2 -5/11/2
f -5/11/2 -8/11/2 -4/11/2
f -7/10/2 -6/10/2 -3/10/2
f -6/11/2 -5/11/2 -2/11/2
f -3/10/2 -6/10/2 -2/10/2
f -2/11/2 -5/11/2 -1/11/2
v 4 2 0.5
v 4 2 -0.5
v 4 3 0.5
v 4 3 -0.5
v 4 6 2.5
v 4 6 0.5
v 4 6 -0.5
v 4 6 -1.5
v 4 7 2.5
v 4 7 1.5
v 4 7 0.5
v 4 7 -0.5
v 4 8 0.5
v 4 8 -0.5
v 4 9 -0.5
v 4 9 -1.5
v 4 10 1.5
v 4 10 0.5
v 4 11 2.5
v 4 11 0.5
v 4 11 -1.5
f -21/1/2 -20/1/2 -19/1/2
f -19/1/2 -20/1/2 -18/1/2
f -19/9/2 -18/9/2 -16/9/2
f -16/9/2 -18/9/2 -15/9/2
f -17/11/2 -16/11/2 -13/11/2
f -13/11/2 -16/11/2 -12/11/2
f -12/11/2 -16/11/2 -11/11/2
f -15/12/2 -14/12/2 -10/12/2
f -12/11/2 -11/11/2 -9/11/2
f -11/2/2 -10/2/2 -9/2/2
f -10/12/2 -14/12/2 -8/12/2
f -9/2/2 -10/2/2 -8/2/2
f -9/11/2 -8/11/2 -7/11/2
f -8/12/2 -14/12/2 -7/12/2
f -7/12/2 -14/12/2 -6/12/2
f -12/11/2 -9/11/2 -5/11/2
f -13/10/2 -12/10/2 -5/10/2
f -7/11/2 -6/11/2 -5/11/2
f -9/11/2 -7/11/2 -5/11/2
f -5/11/2 -6/11/2 -4/11/2
f -13/10/2 -5/10/2 -3/10/2
f -5/10/2 -4/10/2 -3/10/2
f -4/11/2 -6/11/2 -2/11/2
f -3/10/2 -4/10/2 -2/10/2
f -2/11/2 -6/11/2 -1/11/2
v -4 8 3.5
v -4 10 3.5
v -3 8 3.5
v -3 9 3.5
v 3 9 3.5
v 3 10 3.5
f -4/12/3 -5/12/3 -6/12/3
f -3/12/3 -5/12/3 -4/12/3
f -2/12/3 -5/12/3 -3/12/3
f -1/12/3 -5/12/3 -2/12/3
v -4 6 2.5
v -4 7 2.5
v -4 8 2.5
v -3 2 2.5
v -3 3 2.5
v -3 6 2.5
v -3 7 2.5
v -3 8 2.5
v -2 10 2.5
v -2 11 2.5
v -1 3 2.5
v -1 6 2.5
v 0 2 2.5
v 0 3 2.5
v 0 5 2.5
v 0 10 2.5
v 0 11 2.5
v 1 3 2.5
v 1 5 2.5
v 1 6 2.5
v 1 10 2.5
v 1 11 2.5
v 3 2 2.5
v 3 3 2.5
v 3 6 2.5
v 3 7 2.5
v 3 9 2.5
v 3 10 2.5
v 4 6 2.5
v 4 7 2.5
v 4 11 2.5
f -26/13/3 -30/13/3 -31/13/3
f -25/12/3 -29/12/3 -30/12/3
f -25/13/3 -30/13/3 -26/13/3
f -24/12/3 -29/12/3 -25/12/3
f -21/5/3 -27/5/3 -28/5/3
f -21/7/3 -26/7/3 -27/7/3
f -20/7/3 -26/7/3 -21/7/3
f -19/5/3 -21/5/3 -28/5/3
f -18/9/3 -20/9/3 -21/9/3
f -18/5/3 -21/5/3 -19/5/3
f -17/9/3 -20/9/3 -18/9/3
f -16/12/3 -22/12/3 -23/12/3
f -15/12/3 -22/12/3 -16/12/3
f -14/7/3 -17/7/3 -18/7/3
f -14/3/3 -18/3/3 -19/3/3
f -13/9/3 -20/9/3 -17/9/3
f -13/7/3 -17/7/3 -14/7/3
f -12/9/3 -20/9/3 -13/9/3
f -11/11/3 -15/11/3 -16/11/3
f -10/11/3 -15/11/3 -11/11/3
f -9/3/3 -14/3/3 -19/3/3
f -8/5/3 -12/5/3 -13/5/3
f -8/3/3 -14/3/3 -9/3/3
f -8/5/3 -13/5/3 -14/5/3
f -7/5/3 -12/5/3 -8/5/3
f -4/10/3 -10/10/3 -11/10/3
f -3/11/3 -6/11/3 -7/11/3
f -2/10/3 -5/10/3 -6/10/3
f -2/11/3 -6/11/3 -3/11/3
f -2/10/3 -4/10/3 -5/10/3
f -1/10/3 -10/10/3 -4/10/3
f -1/10/3 -4/10/3 -2/10/3
v -3 1 1.5
v -3 2 1.5
v -3 6 1.5
v -3 7 1.5
v -3 9 1.5
v -3 10 1.5
v -3 11 1.5
v -2 7 1.5
v -2 8 1.5
v -2 10 1.5
v -2 11 1.5
v -2 12 1.5
v -1 1 1.5
v -1 2 1.5
v -1 6 1.5
v -1 7 1.5
v -1 8 1.5
v -1 9 1.5
v -1 11 1.5
v -1 12 1.5
v 0 11 1.5
v 1 1 1.5
v 1 2 1.5
v 1 6 1.5
v 1 7 1.5
v 1 8 1.5
v 1 11 1.5
v 1 12 1.5
v 2 7 1.5
v 2 8 1.5
v 2 11 1.5
v 2 12 1.5
v 3 1 1.5
v 3 2 1.5
v 3 6 1.5
v 3 7 1.5
v 3 9 1.5
f -30/2/3 -34/2/3 -35/2/3
f -30/2/3 -33/2/3 -34/2/3
f -29/2/3 -33/2/3 -30/2/3
f -28/12/3 -31/12/3 -32/12/3
f -27/12/3 -31/12/3 -28/12/3
f -25/5/3 -36/5/3 -37/5/3
f -24/5/3 -36/5/3 -25/5/3
f -23/2/3 -30/2/3 -35/2/3
f -22/13/3 -29/13/3 -30/13/3
f -22/2/3 -30/2/3 -23/2/3
f -21/2/3 -33/2/3 -29/2/3
f -21/13/3 -29/13/3 -22/13/3
f -20/2/3 -33/2/3 -21/2/3
f -19/12/3 -26/12/3 -27/12/3
f -18/12/3 -26/12/3 -19/12/3
f -17/11/3 -18/11/3 -19/11/3
f -14/11/3 -22/11/3 -23/11/3
f -13/1/3 -20/1/3 -21/1/3
f -13/11/3 -22/11/3 -14/11/3
f -13/1/3 -21/1/3 -22/1/3
f -12/1/3 -20/1/3 -13/1/3
f -11/11/3 -18/11/3 -17/11/3
f -10/11/3 -18/11/3 -11/11/3
f -9/1/3 -13/1/3 -14/1/3
f -9/13/3 -12/13/3 -13/13/3
f -8/1/3 -20/1/3 -12/1/3
f -8/13/3 -12/13/3 -9/13/3
f -7/10/3 -10/10/3 -11/10/3
f -6/10/3 -10/10/3 -7/10/3
f -5/5/3 -15/5/3 -16/5/3
f -4/5/3 -15/5/3 -5/5/3
f -3/1/3 -9/1/3 -14/1/3
f -3/1/3 -8/1/3 -9/1/3
f -2/1/3 -8/1/3 -3/1/3
f -1/1/3 -20/1/3 -8/1/3
f -1/1/3 -8/1/3 -2/1/3
v -4 2 0.5
v -4 3 0.5
v -4 6 0.5
v -4 10 0.5
v -4 11 0.5
v -3 2 0.5
v -3 3 0.5
v -3 6 0.5
v -3 10 0.5
v -3 11 0.5
v -3 12 0.5
v -2 0 0.5
v -2 1 0.5
v -2 11 0.5
v -2 12 0.5
v -1 0 0.5
v -1 1 0.5
v 1 0 0.5
v 1 1 0.5
v 1 12 0.5
v 1 13 0.5
v 2 0 0.5
v 2 1 0.5
v 2 11 0.5
v 2 12 0.5
v 2 13 0.5
v 3 2 0.5
v 3 3 0.5
v 3 6 0.5
v 3 11 0.5
v 3 12 0.5
v 4 2 0.5
v 4 3 0.5
v 4 6 0.5
f -29/1/3 -33/1/3 -34/1/3
f -28/9/3 -32/9/3 -33/9/3
f -28/1/3 -33/1/3 -29/1/3
f -27/9/3 -32/9/3 -28/9/3
f -26/12/3 -30/12/3 -31/12/3
f -25/12/3 -30/12/3 -26/12/3
f -21/12/3 -24/12/3 -25/12/3
f -20/12/3 -24/12/3 -21/12/3
f -19/8/3 -22/8/3 -23/8/3
f -18/8/3 -22/8/3 -19/8/3
f -13/8/3 -16/8/3 -17/8/3
f -12/8/3 -16/8/3 -13/8/3
f -10/10/3 -14/10/3 -15/10/3
f -9/10/3 -14/10/3 -10/10/3
f -5/10/3 -10/10/3 -11/10/3
f -4/10/3 -10/10/3 -5/10/3
f -3/1/3 -7/1/3 -8/1/3
f -2/9/3 -6/9/3 -7/9/3
f -2/1/3 -7/1/3 -3/1/3
f -1/9/3 -6/9/3 -2/9/3
v -4 6 -0.5
v -4 7 -0.5
v -3 6 -0.5
v -3 7 -0.5
v 3 6 -0.5
v 3 7 -0.5
v 4 6 -0.5
v 4 7 -0.5
f -6/12/3 -7/12/3 -8/12/3
f -5/12/3 -7/12/3 -6/12/3
f -2/12/3 -3/12/3 -4/12/3
f -1/12/3 -3/12/3 -2/12/3
v -4 6 0.5
v -4 7 0.5
v -3 6 0.5
v -3 7 0.5
v 3 6 0.5
v 3 7 0.5
v 4 6 0.5
v 4 7 0.5
f -8/13/4 -7/13/4 -6/13/4
f -6/13/4 -7/13/4 -5/13/4
f -4/11/4 -3/11/4 -2/11/4
f -2/11/4 -3/11/4 -1/11/4
v -4 2 -0.5
v -4 3 -0.5
v -4 6 -0.5
v -4 10 -0.5
v -4 11 -0.5
v -3 2 -0.5
v -3 3 -0.5
v -3 6 -0.5
v -3 10 -0.5
v -3 11 -0.5
v -2 0 -0.5
v -2 1 -0.5
v -1 0 -0.5
v -1 1 -0.5
v 1 0 -0.5
v 1 1 -0.5
v 2 0 -0.5
v 2 1 -0.5
v 3 2 -0.5
v 3 3 -0.5
v 3 6 -0.5
v 4 2 -0.5
v 4 3 -0.5
v 4 6 -0.5
f -24/1/4 -23/1/4 -19/1/4
f -23/9/4 -22/9/4 -18/9/4
f -19/1/4 -23/1/4 -18/1/4
f -18/9/4 -22/9/4 -17/9/4
f -21/12/4 -20/12/4 -16/12/4
f -16/12/4 -20/12/4 -15/12/4
f -14/8/4 -13/8/4 -12/8/4
f -12/8/4 -13/8/4 -11/8/4
f -10/8/4 -9/8/4 -8/8/4
f -8/8/4 -9/8/4 -7/8/4
f -6/1/4 -5/1/4 -3/1/4
f -5/9/4 -4/9/4 -2/9/4
f -3/1/4 -5/1/4 -2/1/4
f -2/9/4 -4/9/4 -1/9/4
v -4 6 -1.5
v -4 10 -1.5
v -3 1 -1.5
v -3 2 -1.5
v -3 6 -1.5
v -3 10 -1.5
v -3 11 -1.5
v -3 12 -1.5
v -2 11 -1.5
v -2 12 -1.5
v -1 1 -1.5
v -1 2 -1.5
v 1 1 -1.5
v 1 2 -1.5
v 1 12 -1.5
v 1 13 -1.5
v 2 11 -1.5
v 2 12 -1.5
v 2 13 -1.5
v 3 1 -1.5
v 3 2 -1.5
v 3 6 -1.5
v 3 9 -1.5
v 3 10 -1.5
v 3 11 -1.5
v 3 12 -1.5
v 4 6 -1.5
v 4 9 -1.5
v 4 11 -1.5
f -29/12/4 -28/12/4 -25/12/4
f -25/12/4 -28/12/4 -24/12/4
f -23/12/4 -22/12/4 -21/12/4
f -21/12/4 -22/12/4 -20/12/4
f -27/5/4 -26/5/4 -19/5/4
f -19/5/4 -26/5/4 -18/5/4
f -15/11/4 -14/11/4 -12/11/4
f -12/11/4 -14/11/4 -11/11/4
f -17/5/4 -16/5/4 -10/5/4
f -10/5/4 -16/5/4 -9/5/4
f -13/11/4 -12/11/4 -5/11/4
f -5/11/4 -12/11/4 -4/11/4
f -8/12/4 -7/12/4 -3/12/4
f -7/11/4 -6/11/4 -2/11/4
f -3/12/4 -7/12/4 -2/12/4
f -6/11/4 -5/11/4 -2/11/4
f -2/11/4 -5/11/4 -1/11/4
v -3 2 -2.5
v -3 3 -2.5
v -3 6 -2.5
v -3 11 -2.5
v -2 6 -2.5
v -2 11 -2.5
v -2 12 -2.5
v 0 11 -2.5
v 0 12 -2.5
v 2 6 -2.5
v 2 10 -2.5
v 2 11 -2.5
v 2 12 -2.5
v 3 2 -2.5
v 3 3 -2.5
v 3 6 -2.5
v 3 10 -2.5
v 3 11 -2.5
f -17/7/4 -16/7/4 -14/7/4
f -16/12/4 -15/12/4 -14/12/4
f -14/12/4 -15/12/4 -13/12/4
f -13/12/4 -12/12/4 -11/12/4
f -11/12/4 -12/12/4 -10/12/4
f -17/7/4 -14/7/4 -9/7/4
f -11/11/4 -10/11/4 -7/11/4
f -7/11/4 -10/11/4 -6/11/4
f -18/5/4 -17/5/4 -5/5/4
f -17/7/4 -9/7/4 -4/7/4
f -5/5/4 -17/5/4 -4/5/4
f -9/12/4 -8/12/4 -3/12/4
f -4/7/4 -9/7/4 -3/7/4
f -8/11/4 -7/11/4 -2/11/4
f -3/12/4 -8/12/4 -2/12/4
f -2/11/4 -7/11/4 -1/11/4
v -2 6 -3.5
v -2 11 -3.5
v 2 6 -3.5
v 2 11 -3.5
f -4/12/4 -3/12/4 -2/12/4
f -2/12/4 -3/12/4 -1/12/4
v -2 0 0.5
v -1 0 0.5
v 1 0 0.5
v 2 0 0.5
v -2 0 -0.5
v -1 0 -0.5
v 1 0 -0.5
v 2 0 -0.5
f -4/8/5 -7/8/5 -8/8/5
f -3/8/5 -7/8/5 -4/8/5
f -2/8/5 -5/8/5 -6/8/5
f -1/8/5 -5/8/5 -2/8/5
v -3 1 1.5
v -1 1 1.5
v 1 1 1.5
v 3 1 1.5
v -2 1 0.5
v -1 1 0.5
v 1 1 0.5
v 2 1 0.5
v -2 1 -0.5
v -1 1 -0.5
v 1 1 -0.5
v 2 1 -0.5
v -3 1 -1.5
v -1 1 -1.5
v 1 1 -1.5
v 3 1 -1.5
f -12/5/5 -15/5/5 -16/5/5
f -11/5/5 -15/5/5 -12/5/5
f -10/5/5 -13/5/5 -14/5/5
f -9/5/5 -13/5/5 -10/5/5
f -8/5/5 -12/5/5 -16/5/5
f -5/5/5 -13/5/5 -9/5/5
f -4/5/5 -7/5/5 -8/5/5
f -4/5/5 -8/5/5 -16/5/5
f -3/5/5 -7/5/5 -4/5/5
f -2/5/5 -5/5/5 -6/5/5
f -1/5/5 -13/5/5 -5/5/5
f -1/5/5 -5/5/5 -2/5/5
v -3 2 2.5
v 0 2 2.5
v 3 2 2.5
v -3 2 1.5
v -1 2 1.5
v 1 2 1.5
v 3 2 1.5
v -4 2 0.5
v -3 2 0.5
v -1 2 0.5
v 0 2 0.5
v 1 2 0.5
v 3 2 0.5
v 4 2 0.5
v -4 2 -0.5
v -3 2 -0.5
v -1 2 -0.5
v 1 2 -0.5
v 3 2 -0.5
v 4 2 -0.5
v -3 2 -1.5
v -1 2 -1.5
v 1 2 -1.5
v 3 2 -1.5
v -3 2 -2.5
v 3 2 -2.5
f -23/5/5 -25/5/5 -26/5/5
f -22/5/5 -25/5/5 -23/5/5
f -21/3/5 -24/3/5 -25/3/5
f -20/3/5 -24/3/5 -21/3/5
f -17/5/5 -25/5/5 -22/5/5
f -16/3/5 -21/3/5 -25/3/5
f -16/5/5 -25/5/5 -17/5/5
f -15/3/5 -21/3/5 -16/3/5
f -12/1/5 -18/1/5 -19/1/5
f -11/1/5 -18/1/5 -12/1/5
f -10/5/5 -15/5/5 -16/5/5
f -10/5/5 -16/5/5 -17/5/5
f -9/5/5 -15/5/5 -10/5/5
f -8/1/5 -13/1/5 -14/1/5
f -7/1/5 -13/1/5 -8/1/5
f -5/5/5 -9/5/5 -10/5/5
f -4/5/5 -9/5/5 -5/5/5
f -2/5/5 -5/5/5 -6/5/5
f -2/5/5 -3/5/5 -4/5/5
f -2/5/5 -4/5/5 -5/5/5
f -1/5/5 -3/5/5 -2/5/5
v -4 6 2.5
v -3 6 2.5
v 3 6 2.5
v 4 6 2.5
v -4 6 0.5
v -3 6 0.5
v 3 6 0.5
v 4 6 0.5
v -4 6 -0.5
v -3 6 -0.5
v 3 6 -0.5
v 4 6 -0.5
v -4 6 -1.5
v -3 6 -1.5
v 3 6 -1.5
v 4 6 -1.5
v -2 6 -2.5
v 2 6 -2.5
v -2 6 -3.5
v 2 6 -3.5
f -16/13/5 -19/13/5 -20/13/5
f -15/13/5 -19/13/5 -16/13/5
f -14/11/5 -17/11/5 -18/11/5
f -13/11/5 -17/11/5 -14/11/5
f -8/12/5 -11/12/5 -12/12/5
f -7/12/5 -11/12/5 -8/12/5
f -6/12/5 -9/12/5 -10/12/5
f -5/12/5 -9/12/5 -6/12/5
f -2/12/5 -3/12/5 -4/12/5
f -1/12/5 -3/12/5 -2/12/5
v -4 7 0.5
v -3 7 0.5
v 3 7 0.5
v 4 7 0.5
v -4 7 -0.5
v -3 7 -0.5
v 3 7 -0.5
v 4 7 -0.5
f -4/2/5 -7/2/5 -8/2/5
f -3/2/5 -7/2/5 -4/2/5
f -2/2/5 -5/2/5 -6/2/5
f -1/2/5 -5/2/5 -2/2/5
v -4 8 3.5
v -3 8 3.5
v -4 8 2.5
v -3 8 2.5
f -2/12/5 -3/12/5 -4/12/5
f -1/12/5 -3/12/5 -2/12/5
v -3 9 3.5
v 3 9 3.5
v -1 9 2.5
v 3 9 2.5
v -3 9 1.5
v -1 9 1.5
v 3 9 1.5
f -5/12/5 -6/12/5 -7/12/5
f -4/12/5 -6/12/5 -5/12/5
f -3/12/5 -5/12/5 -7/12/5
f -2/10/5 -4/10/5 -5/10/5
f -2/12/5 -5/12/5 -3/12/5
f -1/10/5 -4/10/5 -2/10/5
v -3 6 2.5
v -1 6 2.5
v 1 6 2.5
v 3 6 2.5
v -3 6 1.5
v -1 6 1.5
v 1 6 1.5
v 3 6 1.5
v -4 6 0.5
v -3 6 0.5
v 3 6 0.5
v 4 6 0.5
v -4 6 -0.5
v -3 6 -0.5
v 3 6 -0.5
v 4 6 -0.5
f -16/7/6 -15/7/6 -12/7/6
f -15/9/6 -14/9/6 -11/9/6
f -12/7/6 -15/7/6 -11/7/6
f -14/5/6 -13/5/6 -10/5/6
f -11/9/6 -14/9/6 -10/9/6
f -10/5/6 -13/5/6 -9/5/6
f -8/9/6 -7/9/6 -4/9/6
f -4/9/6 -7/9/6 -3/9/6
f -6/9/6 -5/9/6 -2/9/6
f -2/9/6 -5/9/6 -1/9/6
v -4 10 3.5
v 3 10 3.5
v -2 10 2.5
v 0 10 2.5
v 1 10 2.5
v 3 10 2.5
v -3 10 1.5
v -2 10 1.5
v -4 10 0.5
v -3 10 0.5
v -4 10 -0.5
v -3 10 -0.5
v -4 10 -1.5
v -3 10 -1.5
f -14/12/6 -13/12/6 -12/12/6
f -12/12/6 -13/12/6 -11/12/6
f -11/12/6 -13/12/6 -10/12/6
f -10/12/6 -13/12/6 -9/12/6
f -14/12/6 -12/12/6 -8/12/6
f -8/12/6 -12/12/6 -7/12/6
f -14/12/6 -8/12/6 -6/12/6
f -6/12/6 -8/12/6 -5/12/6
f -4/12/6 -3/12/6 -2/12/6
f -2/12/6 -3/12/6 -1/12/6
v -2 11 2.5
v 0 11 2.5
v 1 11 2.5
v 4 11 2.5
v -3 11 1.5
v -2 11 1.5
v -1 11 1.5
v 0 11 1.5
v 1 11 1.5
v 2 11 1.5
v -4 11 0.5
v -3 11 0.5
v -2 11 0.5
v 2 11 0.5
v 3 11 0.5
v 4 11 0.5
v -4 11 -0.5
v -3 11 -0.5
v 3 11 -0.5
v -3 11 -1.5
v -2 11 -1.5
v 2 11 -1.5
v 3 11 -1.5
v 4 11 -1.5
v -3 11 -2.5
v -2 11 -2.5
v 0 11 -2.5
v 2 11 -2.5
v 3 11 -2.5
v -2 11 -3.5
v 2 11 -3.5
f -31/12/6 -30/12/6 -26/12/6
f -26/12/6 -30/12/6 -25/12/6
f -30/11/6 -29/11/6 -24/11/6
f -25/12/6 -30/12/6 -24/12/6
f -29/10/6 -28/10/6 -23/10/6
f -24/11/6 -29/11/6 -23/11/6
f -23/10/6 -28/10/6 -22/10/6
f -27/12/6 -26/12/6 -20/12/6
f -20/12/6 -26/12/6 -19/12/6
f -22/10/6 -28/10/6 -18/10/6
f -18/10/6 -28/10/6 -17/10/6
f -17/10/6 -28/10/6 -16/10/6
f -21/12/6 -20/12/6 -15/12/6
f -15/12/6 -20/12/6 -14/12/6
f -17/11/6 -16/11/6 -13/11/6
f -13/11/6 -16/11/6 -9/11/6
f -9/11/6 -16/11/6 -8/11/6
f -12/12/6 -11/12/6 -7/12/6
f -7/12/6 -11/12/6 -6/12/6
f -10/11/6 -9/11/6 -4/11/6
f -4/11/6 -9/11/6 -3/11/6
f -6/12/6 -5/12/6 -2/12/6
f -5/12/6 -4/12/6 -2/12/6
f -2/12/6 -4/12/6 -1/12/6
v -2 12 1.5
v -1 12 1.5
v 1 12 1.5
v 2 12 1.5
v -3 12 0.5
v -2 12 0.5
v 1 12 0.5
v 2 12 0.5
v 3 12 0.5
v 1 12 -0.5
v 2 12 -0.5
v 3 12 -0.5
v -3 12 -1.5
v -2 12 -1.5
v -1 12 -1.5
v 0 12 -1.5
v 1 12 -1.5
v 2 12 -1.5
v 3 12 -1.5
v -2 12 -2.5
v 0 12 -2.5
v 2 12 -2.5
f -22/12/6 -21/12/6 -17/12/6
f -20/10/6 -19/10/6 -16/10/6
f -21/11/6 -20/11/6 -16/11/6
f -16/10/6 -19/10/6 -15/10/6
f -21/11/6 -16/11/6 -13/11/6
f -15/10/6 -14/10/6 -12/10/6
f -12/10/6 -14/10/6 -11/10/6
f -18/12/6 -17/12/6 -10/12/6
f -17/12/6 -21/12/6 -9/12/6
f -10/12/6 -17/12/6 -9/12/6
f -21/11/6 -13/11/6 -8/11/6
f -9/12/6 -21/12/6 -8/12/6
f -8/11/6 -13/11/6 -7/11/6
f -7/11/6 -13/11/6 -6/11/6
f -12/11/6 -11/11/6 -5/11/6
f -5/11/6 -11/11/6 -4/11/6
f -9/12/6 -8/12/6 -3/12/6
f -8/12/6 -7/12/6 -3/12/6
f -7/11/6 -6/11/6 -2/11/6
f -3/12/6 -7/12/6 -2/12/6
f -6/11/6 -5/11/6 -2/11/6
f -2/11/6 -5/11/6 -1/11/6
v 1 13 0.5
v 2 13 0.5
v 1 13 -0.5
v 2 13 -0.5
v 1 13 -1.5
v 2 13 -1.5
f -6/10/6 -5/10/6 -4/10/6
f -4/10/6 -5/10/6 -3/10/6
f -4/11/6 -3/11/6 -2/11/6
f -2/11/6 -3/11/6 -1/11/6
