# MagicaVoxel @ ephtracy

# material
mtllib chr_old.mtl
usemtl palette

# normals
vn -1 0 0
vn 1 0 0
vn 0 0 1
vn 0 0 -1
vn 0 -1 0
vn 0 1 0

# texcoords
vt 0.00195312 0.5
vt 0.0332031 0.5
vt 0.0605469 0.5
vt 0.142578 0.5
vt 0.310547 0.5
vt 0.365234 0.5
vt 0.533203 0.5
vt 0.646484 0.5
vt 0.978516 0.5
vt 0.982422 0.5
vt 0.986328 0.5
vt 0.994141 0.5

# verts and faces
v -4 4 2.5
v -4 4 1.5
v -4 5 2.5
v -4 5 1.5
v -4 5 -0.5
v -4 6 1.5
v -4 6 -0.5
v -4 9 3.5
v -4 9 2.5
v -4 10 3.5
v -4 10 2.5
f -9/5/1 -10/5/1 -11/5/1
f -8/5/1 -10/5/1 -9/5/1
f -6/5/1 -7/5/1 -8/5/1
f -5/5/1 -7/5/1 -6/5/1
f -2/10/1 -3/10/1 -4/10/1
f -1/10/1 -3/10/1 -2/10/1
v -3 1 2.5
v -3 1 -2.5
v -3 4 3.5
v -3 4 2.5
v -3 4 1.5
v -3 5 3.5
v -3 5 2.5
v -3 5 1.5
v -3 5 -0.5
v -3 6 1.5
v -3 6 -0.5
v -3 7 2.5
v -3 7 -2.5
v -3 9 2.5
v -3 10 2.5
v -3 12 2.5
v -3 12 -2.5
f -14/5/1 -16/5/1 -17/5/1
f -13/5/1 -16/5/1 -14/5/1
f -12/3/1 -14/3/1 -15/3/1
f -11/3/1 -14/3/1 -12/3/1
f -10/5/1 -16/5/1 -13/5/1
f -9/5/1 -16/5/1 -10/5/1
f -8/5/1 -10/5/1 -11/5/1
f -7/5/1 -16/5/1 -9/5/1
f -6/5/1 -8/5/1 -11/5/1
f -6/5/1 -7/5/1 -8/5/1
f -5/5/1 -16/5/1 -7/5/1
f -5/5/1 -7/5/1 -6/5/1
f -4/3/1 -5/3/1 -6/3/1
f -3/3/1 -5/3/1 -4/3/1
f -2/3/1 -5/3/1 -3/3/1
f -1/3/1 -5/3/1 -2/3/1
v -2 0 3.5
v -2 0 2.5
v -2 0 0.5
v -2 0 -0.5
v -2 1 3.5
v -2 1 2.5
v -2 1 0.5
v -2 1 -0.5
v -2 3 3.5
v -2 3 2.5
v -2 4 3.5
v -2 4 2.5
v -2 5 3.5
v -2 5 2.5
v -2 7 3.5
v -2 7 2.5
v -2 12 1.5
v -2 12 -1.5
v -2 13 1.5
v -2 13 -1.5
f -16/7/1 -19/7/1 -20/7/1
f -15/7/1 -19/7/1 -16/7/1
f -14/8/1 -17/8/1 -18/8/1
f -13/8/1 -17/8/1 -14/8/1
f -12/6/1 -15/6/1 -16/6/1
f -11/6/1 -15/6/1 -12/6/1
f -10/7/1 -11/7/1 -12/7/1
f -9/7/1 -11/7/1 -10/7/1
f -6/9/1 -7/9/1 -8/9/1
f -5/9/1 -7/9/1 -6/9/1
f -2/3/1 -3/3/1 -4/3/1
f -1/3/1 -3/3/1 -2/3/1
v -1 7 3.5
v -1 7 2.5
v -1 8 3.5
v -1 8 2.5
f -2/9/1 -3/9/1 -4/9/1
f -1/9/1 -3/9/1 -2/9/1
v 1 0 0.5
v 1 0 -0.5
v 1 1 0.5
v 1 1 -0.5
v 1 4 -2.5
v 1 4 -3.5
v 1 5 -2.5
v 1 5 -3.5
v 1 9 3.5
v 1 9 2.5
v 1 10 3.5
v 1 10 2.5
f -10/8/1 -11/8/1 -12/8/1
f -9/8/1 -11/8/1 -10/8/1
f -6/3/1 -7/3/1 -8/3/1
f -5/3/1 -7/3/1 -6/3/1
f -2/10/1 -3/10/1 -4/10/1
f -1/10/1 -3/10/1 -2/10/1
v -1 0 3.5
v -1 0 2.5
v -1 0 0.5
v -1 0 -0.5
v -1 1 3.5
v -1 1 2.5
v -1 1 0.5
v -1 1 -0.5
v -1 3 3.5
v -1 3 2.5
v -1 4 3.5
v -1 4 2.5
v -1 9 3.5
v -1 9 2.5
v -1 10 3.5
v -1 10 2.5
f -16/7/2 -15/7/2 -12/7/2
f -12/7/2 -15/7/2 -11/7/2
f -14/8/2 -13/8/2 -10/8/2
f -10/8/2 -13/8/2 -9/8/2
f -12/6/2 -11/6/2 -8/6/2
f -8/6/2 -11/6/2 -7/6/2
f -8/7/2 -7/7/2 -6/7/2
f -6/7/2 -7/7/2 -5/7/2
f -4/9/2 -3/9/2 -2/9/2
f -2/9/2 -3/9/2 -1/9/2
v 1 4 3.5
v 1 4 2.5
v 1 5 3.5
v 1 5 2.5
v 1 7 3.5
v 1 7 2.5
v 1 8 3.5
v 1 8 2.5
f -8/11/2 -7/11/2 -6/11/2
f -6/11/2 -7/11/2 -5/11/2
f -4/9/2 -3/9/2 -2/9/2
f -2/9/2 -3/9/2 -1/9/2
v 2 0 0.5
v 2 0 -0.5
v 2 1 0.5
v 2 1 -0.5
v 2 5 3.5
v 2 5 2.5
v 2 6 3.5
v 2 6 2.5
v 2 7 3.5
v 2 7 2.5
v 2 12 1.5
v 2 12 -1.5
v 2 13 1.5
v 2 13 -1.5
f -14/8/2 -13/8/2 -12/8/2
f -12/8/2 -13/8/2 -11/8/2
f -10/11/2 -9/11/2 -8/11/2
f -8/11/2 -9/11/2 -7/11/2
f -8/9/2 -7/9/2 -6/9/2
f -6/9/2 -7/9/2 -5/9/2
f -4/2/2 -3/2/2 -2/2/2
f -2/2/2 -3/2/2 -1/2/2
v 3 1 2.5
v 3 1 -1.5
v 3 1 -2.5
v 3 4 -1.5
v 3 4 -2.5
v 3 4 -3.5
v 3 5 0.5
v 3 5 -1.5
v 3 5 -2.5
v 3 5 -3.5
v 3 6 0.5
v 3 6 -1.5
v 3 7 2.5
v 3 7 -1.5
v 3 7 -2.5
v 3 9 2.5
v 3 10 2.5
v 3 12 2.5
v 3 12 -2.5
f -19/4/2 -18/4/2 -16/4/2
f -18/5/2 -17/5/2 -16/5/2
f -16/5/2 -17/5/2 -15/5/2
f -19/4/2 -16/4/2 -13/4/2
f -13/4/2 -16/4/2 -12/4/2
f -15/3/2 -14/3/2 -11/3/2
f -11/3/2 -14/3/2 -10/3/2
f -19/4/2 -13/4/2 -9/4/2
f -12/5/2 -11/5/2 -8/5/2
f -19/4/2 -9/4/2 -7/4/2
f -9/4/2 -8/4/2 -7/4/2
f -8/5/2 -11/5/2 -6/5/2
f -7/4/2 -8/4/2 -6/4/2
f -6/5/2 -11/5/2 -5/5/2
f -7/2/2 -6/2/2 -4/2/2
f -6/2/2 -5/2/2 -4/2/2
f -4/2/2 -5/2/2 -3/2/2
f -3/2/2 -5/2/2 -2/2/2
f -2/2/2 -5/2/2 -1/2/2
v 4 4 -1.5
v 4 4 -2.5
v 4 5 0.5
v 4 5 -1.5
v 4 5 -2.5
v 4 6 0.5
v 4 6 -1.5
v 4 9 3.5
v 4 9 2.5
v 4 10 3.5
v 4 10 2.5
f -11/5/2 -10/5/2 -8/5/2
f -8/5/2 -10/5/2 -7/5/2
f -9/5/2 -8/5/2 -6/5/2
f -6/5/2 -8/5/2 -5/5/2
f -4/9/2 -3/9/2 -2/9/2
f -2/9/2 -3/9/2 -1/9/2
v -4 9 3.5
v -4 10 3.5
v -3 4 3.5
v -3 5 3.5
v -2 0 3.5
v -2 1 3.5
v -2 3 3.5
v -2 4 3.5
v -2 5 3.5
v -2 7 3.5
v -2 9 3.5
v -2 10 3.5
v -1 0 3.5
v -1 1 3.5
v -1 3 3.5
v -1 4 3.5
v -1 5 3.5
v -1 7 3.5
v -1 8 3.5
v -1 9 3.5
v -1 10 3.5
v 1 4 3.5
v 1 5 3.5
v 1 6 3.5
v 1 7 3.5
v 1 8 3.5
v 1 9 3.5
v 1 10 3.5
v 2 5 3.5
v 2 6 3.5
v 2 7 3.5
v 2 9 3.5
v 2 10 3.5
v 4 9 3.5
v 4 10 3.5
f -28/3/3 -32/3/3 -33/3/3
f -27/3/3 -32/3/3 -28/3/3
f -25/10/3 -34/10/3 -35/10/3
f -24/10/3 -34/10/3 -25/10/3
f -23/7/3 -30/7/3 -31/7/3
f -22/6/3 -29/6/3 -30/6/3
f -22/7/3 -30/7/3 -23/7/3
f -21/7/3 -28/7/3 -29/7/3
f -21/6/3 -29/6/3 -22/6/3
f -20/3/3 -27/3/3 -28/3/3
f -20/7/3 -28/7/3 -21/7/3
f -19/9/3 -26/9/3 -27/9/3
f -19/3/3 -27/3/3 -20/3/3
f -18/9/3 -26/9/3 -19/9/3
f -16/9/3 -24/9/3 -25/9/3
f -15/9/3 -24/9/3 -16/9/3
f -14/11/3 -19/11/3 -20/11/3
f -13/9/3 -18/9/3 -19/9/3
f -13/11/3 -19/11/3 -14/11/3
f -13/9/3 -17/9/3 -18/9/3
f -12/9/3 -17/9/3 -13/9/3
f -11/9/3 -17/9/3 -12/9/3
f -10/9/3 -17/9/3 -11/9/3
f -7/11/3 -12/11/3 -13/11/3
f -6/9/3 -11/9/3 -12/9/3
f -6/11/3 -12/11/3 -7/11/3
f -5/9/3 -11/9/3 -6/9/3
f -4/10/3 -8/10/3 -9/10/3
f -3/10/3 -8/10/3 -4/10/3
f -2/9/3 -3/9/3 -4/9/3
f -1/9/3 -3/9/3 -2/9/3
v -4 4 2.5
v -4 5 2.5
v -3 1 2.5
v -3 4 2.5
v -3 5 2.5
v -3 7 2.5
v -3 9 2.5
v -3 10 2.5
v -3 12 2.5
v -2 1 2.5
v -2 3 2.5
v -2 4 2.5
v -2 5 2.5
v -2 7 2.5
v -2 8 2.5
v -2 9 2.5
v -2 10 2.5
v -2 12 2.5
v -1 1 2.5
v -1 3 2.5
v -1 4 2.5
v -1 7 2.5
v -1 8 2.5
v -1 9 2.5
v -1 10 2.5
v 0 1 2.5
v 0 3 2.5
v 1 3 2.5
v 1 4 2.5
v 1 5 2.5
v 1 7 2.5
v 1 8 2.5
v 1 9 2.5
v 1 10 2.5
v 1 11 2.5
v 1 12 2.5
v 2 5 2.5
v 2 6 2.5
v 2 7 2.5
v 2 8 2.5
v 2 9 2.5
v 2 10 2.5
v 2 11 2.5
v 2 12 2.5
v 3 1 2.5
v 3 7 2.5
v 3 9 2.5
v 3 10 2.5
v 3 12 2.5
f -46/5/3 -48/5/3 -49/5/3
f -45/5/3 -48/5/3 -46/5/3
f -40/5/3 -46/5/3 -47/5/3
f -39/5/3 -46/5/3 -40/5/3
f -38/5/3 -46/5/3 -39/5/3
f -37/5/3 -44/5/3 -45/5/3
f -36/3/3 -43/3/3 -44/3/3
f -36/5/3 -44/5/3 -37/5/3
f -35/3/3 -43/3/3 -36/3/3
f -34/3/3 -43/3/3 -35/3/3
f -33/3/3 -41/3/3 -42/3/3
f -32/3/3 -41/3/3 -33/3/3
f -28/3/3 -35/3/3 -36/3/3
f -27/12/3 -34/12/3 -35/12/3
f -27/3/3 -35/3/3 -28/3/3
f -26/12/3 -34/12/3 -27/12/3
f -25/2/3 -32/2/3 -33/2/3
f -24/5/3 -29/5/3 -30/5/3
f -24/5/3 -30/5/3 -31/5/3
f -23/5/3 -29/5/3 -24/5/3
f -22/4/3 -23/4/3 -24/4/3
f -22/5/3 -29/5/3 -23/5/3
f -21/5/3 -29/5/3 -22/5/3
f -18/2/3 -26/2/3 -27/2/3
f -18/2/3 -25/2/3 -26/2/3
f -17/2/3 -25/2/3 -18/2/3
f -16/2/3 -32/2/3 -25/2/3
f -16/2/3 -25/2/3 -17/2/3
f -15/2/3 -32/2/3 -16/2/3
f -14/2/3 -32/2/3 -15/2/3
f -13/4/3 -20/4/3 -21/4/3
f -13/4/3 -21/4/3 -22/4/3
f -11/2/3 -18/2/3 -19/2/3
f -10/12/3 -17/12/3 -18/12/3
f -10/2/3 -18/2/3 -11/2/3
f -9/12/3 -17/12/3 -10/12/3
f -8/2/3 -15/2/3 -16/2/3
f -7/1/3 -14/1/3 -15/1/3
f -7/2/3 -15/2/3 -8/2/3
f -6/1/3 -14/1/3 -7/1/3
f -5/4/3 -11/4/3 -12/4/3
f -5/4/3 -22/4/3 -24/4/3
f -5/4/3 -12/4/3 -13/4/3
f -5/4/3 -13/4/3 -22/4/3
f -4/2/3 -9/2/3 -10/2/3
f -4/4/3 -11/4/3 -5/4/3
f -4/2/3 -10/2/3 -11/2/3
f -3/2/3 -9/2/3 -4/2/3
f -2/2/3 -6/2/3 -7/2/3
f -2/2/3 -7/2/3 -8/2/3
f -1/2/3 -6/2/3 -2/2/3
v -4 5 1.5
v -4 6 1.5
v -3 5 1.5
v -3 6 1.5
v -2 12 1.5
v -2 13 1.5
v -1 12 1.5
v -1 13 1.5
v 1 12 1.5
v 2 12 1.5
v 2 13 1.5
f -9/5/3 -10/5/3 -11/5/3
f -8/5/3 -10/5/3 -9/5/3
f -5/3/3 -6/3/3 -7/3/3
f -4/3/3 -6/3/3 -5/3/3
f -3/2/3 -4/2/3 -5/2/3
f -2/2/3 -4/2/3 -3/2/3
f -1/2/3 -4/2/3 -2/2/3
v -2 0 0.5
v -2 1 0.5
v -1 0 0.5
v -1 1 0.5
v 1 0 0.5
v 1 1 0.5
v 2 0 0.5
v 2 1 0.5
v 3 5 0.5
v 3 6 0.5
v 4 5 0.5
v 4 6 0.5
f -10/8/3 -11/8/3 -12/8/3
f -9/8/3 -11/8/3 -10/8/3
f -6/8/3 -7/8/3 -8/8/3
f -5/8/3 -7/8/3 -6/8/3
f -2/5/3 -3/5/3 -4/5/3
f -1/5/3 -3/5/3 -2/5/3
v 3 4 -1.5
v 3 5 -1.5
v 4 4 -1.5
v 4 5 -1.5
f -2/5/3 -3/5/3 -4/5/3
f -1/5/3 -3/5/3 -2/5/3
v -4 9 2.5
v -4 10 2.5
v -3 9 2.5
v -3 10 2.5
v -2 0 2.5
v -2 1 2.5
v -1 0 2.5
v -1 1 2.5
v 3 9 2.5
v 3 10 2.5
v 4 9 2.5
v 4 10 2.5
f -12/10/4 -11/10/4 -10/10/4
f -10/10/4 -11/10/4 -9/10/4
f -8/7/4 -7/7/4 -6/7/4
f -6/7/4 -7/7/4 -5/7/4
f -4/9/4 -3/9/4 -2/9/4
f -2/9/4 -3/9/4 -1/9/4
v -4 4 1.5
v -4 5 1.5
v -3 4 1.5
v -3 5 1.5
f -4/5/4 -3/5/4 -2/5/4
f -2/5/4 -3/5/4 -1/5/4
v -4 5 -0.5
v -4 6 -0.5
v -3 5 -0.5
v -3 6 -0.5
v -2 0 -0.5
v -2 1 -0.5
v -1 0 -0.5
v -1 1 -0.5
v 1 0 -0.5
v 1 1 -0.5
v 2 0 -0.5
v 2 1 -0.5
f -12/5/4 -11/5/4 -10/5/4
f -10/5/4 -11/5/4 -9/5/4
f -8/8/4 -7/8/4 -6/8/4
f -6/8/4 -7/8/4 -5/8/4
f -4/8/4 -3/8/4 -2/8/4
f -2/8/4 -3/8/4 -1/8/4
v -2 12 -1.5
v -2 13 -1.5
v -1 12 -1.5
v -1 13 -1.5
v 2 12 -1.5
v 2 13 -1.5
v 3 5 -1.5
v 3 6 -1.5
v 4 5 -1.5
v 4 6 -1.5
f -10/3/4 -9/3/4 -8/3/4
f -8/3/4 -9/3/4 -7/3/4
f -8/2/4 -7/2/4 -6/2/4
f -6/2/4 -7/2/4 -5/2/4
f -4/5/4 -3/5/4 -2/5/4
f -2/5/4 -3/5/4 -1/5/4
v -3 1 -2.5
v -3 7 -2.5
v -3 12 -2.5
v -2 7 -2.5
v -2 12 -2.5
v 1 4 -2.5
v 1 5 -2.5
v 3 1 -2.5
v 3 4 -2.5
v 3 5 -2.5
v 3 7 -2.5
v 3 12 -2.5
v 4 4 -2.5
v 4 5 -2.5
f -14/5/4 -13/5/4 -11/5/4
f -13/3/4 -12/3/4 -11/3/4
f -11/3/4 -12/3/4 -10/3/4
f -14/5/4 -11/5/4 -9/5/4
f -9/5/4 -11/5/4 -8/5/4
f -14/5/4 -9/5/4 -7/5/4
f -7/5/4 -9/5/4 -6/5/4
f -8/5/4 -11/5/4 -5/5/4
f -11/2/4 -10/2/4 -4/2/4
f -5/5/4 -11/5/4 -4/5/4
f -4/2/4 -10/2/4 -3/2/4
f -6/5/4 -5/5/4 -2/5/4
f -2/5/4 -5/5/4 -1/5/4
v 1 4 -3.5
v 1 5 -3.5
v 3 4 -3.5
v 3 5 -3.5
f -4/3/4 -3/3/4 -2/3/4
f -2/3/4 -3/3/4 -1/3/4
v -2 0 3.5
v -1 0 3.5
v -2 0 2.5
v -1 0 2.5
v -2 0 0.5
v -1 0 0.5
v 1 0 0.5
v 2 0 0.5
v -2 0 -0.5
v -1 0 -0.5
v 1 0 -0.5
v 2 0 -0.5
f -10/7/5 -11/7/5 -12/7/5
f -9/7/5 -11/7/5 -10/7/5
f -4/8/5 -7/8/5 -8/8/5
f -3/8/5 -7/8/5 -4/8/5
f -2/8/5 -5/8/5 -6/8/5
f -1/8/5 -5/8/5 -2/8/5
v -3 1 2.5
v -2 1 2.5
v -1 1 2.5
v 0 1 2.5
v 3 1 2.5
v -2 1 1.5
v -1 1 1.5
v 0 1 1.5
v -2 1 0.5
v -1 1 0.5
v 1 1 0.5
v 2 1 0.5
v -2 1 -0.5
v -1 1 -0.5
v 1 1 -0.5
v 2 1 -0.5
v -2 1 -1.5
v 3 1 -1.5
v -3 1 -2.5
v 3 1 -2.5
f -15/5/5 -19/5/5 -20/5/5
f -15/8/5 -18/8/5 -19/8/5
f -14/5/5 -17/5/5 -18/5/5
f -14/8/5 -18/8/5 -15/8/5
f -13/4/5 -16/4/5 -17/4/5
f -13/5/5 -17/5/5 -14/5/5
f -12/4/5 -14/4/5 -15/4/5
f -12/5/5 -15/5/5 -20/5/5
f -12/4/5 -13/4/5 -14/4/5
f -11/4/5 -13/4/5 -12/4/5
f -10/4/5 -16/4/5 -13/4/5
f -10/4/5 -13/4/5 -11/4/5
f -9/4/5 -16/4/5 -10/4/5
f -8/5/5 -12/5/5 -20/5/5
f -7/4/5 -10/4/5 -11/4/5
f -6/4/5 -10/4/5 -7/4/5
f -5/4/5 -16/4/5 -9/4/5
f -4/4/5 -6/4/5 -7/4/5
f -4/4/5 -5/4/5 -6/4/5
f -4/5/5 -8/5/5 -20/5/5
f -4/4/5 -7/4/5 -8/4/5
f -3/4/5 -16/4/5 -5/4/5
f -3/4/5 -5/4/5 -4/4/5
f -2/5/5 -4/5/5 -20/5/5
f -2/5/5 -3/5/5 -4/5/5
f -1/5/5 -3/5/5 -2/5/5
v -3 4 3.5
v -2 4 3.5
v -1 4 3.5
v 1 4 3.5
v -4 4 2.5
v -3 4 2.5
v -2 4 2.5
v -1 4 2.5
v 1 4 2.5
v -4 4 1.5
v -3 4 1.5
v 3 4 -1.5
v 4 4 -1.5
v 1 4 -2.5
v 3 4 -2.5
v 4 4 -2.5
v 1 4 -3.5
v 3 4 -3.5
f -13/3/5 -17/3/5 -18/3/5
f -12/3/5 -17/3/5 -13/3/5
f -11/11/5 -15/11/5 -16/11/5
f -10/11/5 -15/11/5 -11/11/5
f -9/5/5 -13/5/5 -14/5/5
f -8/5/5 -13/5/5 -9/5/5
f -4/5/5 -6/5/5 -7/5/5
f -3/5/5 -6/5/5 -4/5/5
f -2/3/5 -4/3/5 -5/3/5
f -1/3/5 -4/3/5 -2/3/5
v 1 5 3.5
v 2 5 3.5
v 1 5 2.5
v 2 5 2.5
v -4 5 1.5
v -3 5 1.5
v 3 5 0.5
v 4 5 0.5
v -4 5 -0.5
v -3 5 -0.5
v 3 5 -1.5
v 4 5 -1.5
f -10/11/5 -11/11/5 -12/11/5
f -9/11/5 -11/11/5 -10/11/5
f -4/5/5 -7/5/5 -8/5/5
f -3/5/5 -7/5/5 -4/5/5
f -2/5/5 -5/5/5 -6/5/5
f -1/5/5 -5/5/5 -2/5/5
v -4 9 3.5
v -2 9 3.5
v -1 9 3.5
v 1 9 3.5
v 2 9 3.5
v 4 9 3.5
v -4 9 2.5
v -3 9 2.5
v -2 9 2.5
v -1 9 2.5
v 1 9 2.5
v 2 9 2.5
v 3 9 2.5
v 4 9 2.5
f -8/10/5 -13/10/5 -14/10/5
f -7/10/5 -13/10/5 -8/10/5
f -6/9/5 -12/9/5 -13/9/5
f -6/10/5 -13/10/5 -7/10/5
f -5/9/5 -12/9/5 -6/9/5
f -4/10/5 -10/10/5 -11/10/5
f -3/9/5 -9/9/5 -10/9/5
f -3/10/5 -10/10/5 -4/10/5
f -2/9/5 -9/9/5 -3/9/5
f -1/9/5 -9/9/5 -2/9/5
v -3 5 3.5
v -2 5 3.5
v -4 5 2.5
v -3 5 2.5
v -2 5 2.5
v -4 5 1.5
v -3 5 1.5
v 3 5 -1.5
v 4 5 -1.5
v 1 5 -2.5
v 3 5 -2.5
v 4 5 -2.5
v 1 5 -3.5
v 3 5 -3.5
f -14/3/6 -13/3/6 -11/3/6
f -11/3/6 -13/3/6 -10/3/6
f -12/5/6 -11/5/6 -9/5/6
f -9/5/6 -11/5/6 -8/5/6
f -7/5/6 -6/5/6 -4/5/6
f -4/5/6 -6/5/6 -3/5/6
f -5/3/6 -4/3/6 -2/3/6
f -2/3/6 -4/3/6 -1/3/6
v -4 6 1.5
v -3 6 1.5
v 3 6 0.5
v 4 6 0.5
v -4 6 -0.5
v -3 6 -0.5
v 3 6 -1.5
v 4 6 -1.5
f -8/5/6 -7/5/6 -4/5/6
f -4/5/6 -7/5/6 -3/5/6
f -6/5/6 -5/5/6 -2/5/6
f -2/5/6 -5/5/6 -1/5/6
v -2 7 3.5
v -1 7 3.5
v 1 7 3.5
v 2 7 3.5
v -2 7 2.5
v -1 7 2.5
v 1 7 2.5
v 2 7 2.5
f -8/9/6 -7/9/6 -4/9/6
f -4/9/6 -7/9/6 -3/9/6
f -6/9/6 -5/9/6 -2/9/6
f -2/9/6 -5/9/6 -1/9/6
v -1 8 3.5
v 1 8 3.5
v -1 8 2.5
v 1 8 2.5
f -4/9/6 -3/9/6 -2/9/6
f -2/9/6 -3/9/6 -1/9/6
v -4 10 3.5
v -2 10 3.5
v -1 10 3.5
v 1 10 3.5
v 2 10 3.5
v 4 10 3.5
v -4 10 2.5
v -3 10 2.5
v -2 10 2.5
v -1 10 2.5
v 1 10 2.5
v 2 10 2.5
v 3 10 2.5
v 4 10 2.5
f -14/10/6 -13/10/6 -8/10/6
f -8/10/6 -13/10/6 -7/10/6
f -13/9/6 -12/9/6 -6/9/6
f -7/10/6 -13/10/6 -6/10/6
f -6/9/6 -12/9/6 -5/9/6
f -11/10/6 -10/10/6 -4/10/6
f -10/9/6 -9/9/6 -3/9/6
f -4/10/6 -10/10/6 -3/10/6
f -3/9/6 -9/9/6 -2/9/6
f -2/9/6 -9/9/6 -1/9/6
v -3 12 2.5
v -2 12 2.5
v 1 12 2.5
v 2 12 2.5
v 3 12 2.5
v -2 12 1.5
v -1 12 1.5
v 1 12 1.5
v 2 12 1.5
v -2 12 -1.5
v -1 12 -1.5
v 2 12 -1.5
v -3 12 -2.5
v -2 12 -2.5
v 3 12 -2.5
f -15/3/6 -14/3/6 -10/3/6
f -14/2/6 -13/2/6 -10/2/6
f -10/2/6 -13/2/6 -9/2/6
f -13/1/6 -12/1/6 -8/1/6
f -9/2/6 -13/2/6 -8/2/6
f -12/2/6 -11/2/6 -7/2/6
f -8/1/6 -12/1/6 -7/1/6
f -15/3/6 -10/3/6 -6/3/6
f -7/2/6 -11/2/6 -4/2/6
f -15/3/6 -6/3/6 -3/3/6
f -6/2/6 -5/2/6 -2/2/6
f -3/3/6 -6/3/6 -2/3/6
f -5/2/6 -4/2/6 -2/2/6
f -4/2/6 -11/2/6 -1/2/6
f -2/2/6 -4/2/6 -1/2/6
v -2 13 1.5
v -1 13 1.5
v 2 13 1.5
v -2 13 -1.5
v -1 13 -1.5
v 2 13 -1.5
f -6/3/6 -5/3/6 -3/3/6
f -5/2/6 -4/2/6 -2/2/6
f -3/3/6 -5/3/6 -2/3/6
f -2/2/6 -4/2/6 -1/2/6
